<svg width="42" height="42" viewBox="0 0 42 42" fill="none" xmlns="http://www.w3.org/2000/svg">
<circle cx="21" cy="21" r="21" fill="#EEEEEE"/>
<path d="M29.4219 14.125H12.5781C11.9121 14.125 11.3793 14.6621 11.375 15.3281V15.341V26.659V26.6719C11.3836 27.3379 11.9121 27.875 12.5781 27.875H29.4219C30.0922 27.875 30.625 27.3293 30.625 26.659V15.341C30.625 14.6707 30.0922 14.125 29.4219 14.125ZM13.3129 15.5H28.6828C28.9793 15.5 29.2027 15.7191 29.2457 16.0156V16.875H12.75V16.0027C12.793 15.7105 13.0207 15.5 13.3129 15.5ZM28.6871 26.5H13.3129C13.0164 26.5 12.793 26.2895 12.75 25.9973V21H29.25V25.9844C29.207 26.2809 28.9793 26.5 28.6871 26.5Z" fill="#AAAAAA"/>
<path d="M22.375 23.0625H14.125V23.75H22.375V23.0625Z" fill="#AAAAAA"/>
<path d="M18.25 24.4375H14.125V25.125H18.25V24.4375Z" fill="#AAAAAA"/>
<path d="M27.875 23.0625H25.125V25.125H27.875V23.0625Z" fill="#AAAAAA"/>
</svg>
