<svg width="42" height="42" viewBox="0 0 42 42" fill="none" xmlns="http://www.w3.org/2000/svg">
<circle cx="21" cy="21" r="21" fill="#EEEEEE"/>
<path d="M16 24.4763C16.185 26.56 17.8912 28.0388 20.4887 28.23V29.75H21.7925V28.23C24.63 28.0063 26.39 26.4325 26.39 24.105C26.39 22.1175 25.2062 20.9675 22.695 20.32L21.7925 20.0863V15.3338C23.195 15.4713 24.1412 16.2263 24.38 17.3538H26.2175C26.01 15.3538 24.2925 13.9187 21.7925 13.76V12.25H20.4887V13.7913C18.065 14.0788 16.4013 15.6312 16.4013 17.7362C16.4013 19.5537 17.6087 20.84 19.7275 21.3825L20.49 21.585V26.6237C19.0537 26.4112 18.065 25.6238 17.8262 24.4763H16ZM20.2387 19.6813C18.935 19.3525 18.2387 18.65 18.2387 17.6612C18.2387 16.4812 19.1187 15.61 20.4887 15.3762V19.745L20.2387 19.6813ZM22.2275 22.0213C23.8362 22.425 24.5425 23.095 24.5425 24.2325C24.5425 25.6038 23.51 26.5175 21.7925 26.6562V21.9125L22.2275 22.02V22.0213Z" fill="#AAAAAA"/>
</svg>
