<svg width="32" height="32" viewBox="0 0 32 32" fill="none" xmlns="http://www.w3.org/2000/svg">
<path d="M20.7563 0.889404L18.9397 5.92599C20.6164 11.4596 20.6164 19.6727 18.9397 25.2065L20.7563 30.2426C26.8011 28.105 31.1331 22.3429 31.1331 15.5657C31.1331 8.78965 26.8011 3.02701 20.7563 0.889404Z" fill="#589F58"/>
<path d="M20.7564 5.92612V0.889463C19.133 0.315334 17.387 0 15.5667 0C17.967 0 14.6388 8.13469 20.7564 5.92612Z" fill="#F3F4F5"/>
<path d="M15.5666 31.1326C17.3868 31.1326 19.1329 30.8173 20.7563 30.2431V25.207C14.7001 24.6024 15.5666 31.1326 15.5666 31.1326Z" fill="#F3F4F5"/>
<path d="M0 15.566C0 22.3659 4.3612 28.1438 10.4377 30.2637V0.869385C4.3612 2.98976 0 8.76715 0 15.566Z" fill="#589F58"/>
<path d="M20.7563 5.92627V25.2068C22.4333 19.673 22.4333 11.4598 20.7563 5.92627Z" fill="#589F58"/>
<path d="M20.7563 25.2066V5.92612C19.6964 2.42761 17.9668 0 15.5665 0C13.7689 0 12.0439 0.308674 10.4377 0.869354V30.2637C12.0439 30.8243 13.7689 31.1325 15.5665 31.1325C17.9668 31.1325 19.6964 28.7049 20.7563 25.2066Z" fill="#F3F4F5"/>
</svg>
