<svg width="20" height="20" viewBox="0 0 20 20" fill="none" xmlns="http://www.w3.org/2000/svg">
<path fill-rule="evenodd" clip-rule="evenodd" d="M14.1422 5.65681C13.7518 5.26643 13.074 5.31077 12.629 5.75581L0.806131 17.5786C0.361097 18.0237 0.316755 18.7015 0.707137 19.0918C1.09752 19.4822 1.77531 19.4379 2.22034 18.9928L14.0432 7.17002C14.4882 6.72499 14.5325 6.0472 14.1422 5.65681Z" fill="white"/>
<path fill-rule="evenodd" clip-rule="evenodd" d="M2.59096 6.36766C2.59589 6.99375 3.1077 7.50557 3.7338 7.51049L12.2218 7.57728L12.2886 16.0653C12.2935 16.6914 12.8053 17.2032 13.4314 17.2081C14.0575 17.213 14.5613 16.7092 14.5564 16.0831L14.4807 6.46121C14.4758 5.83512 13.9639 5.3233 13.3379 5.31837L3.71595 5.24266C3.08986 5.23774 2.58603 5.74156 2.59096 6.36766Z" fill="white"/>
</svg>
