<svg width="26" height="26" viewBox="0 0 26 26" fill="none" xmlns="http://www.w3.org/2000/svg">
<g clip-path="url(#clip0_885_265)">
<path d="M2.76575 10.5779H15.4351C15.8836 10.5779 16.2476 10.2106 16.2476 9.75727C16.2476 9.3039 15.8836 8.93665 15.4351 8.93665H2.76575L6.99075 4.65071C7.30844 4.32977 7.30844 3.81058 6.99075 3.49046C6.67306 3.16952 6.15875 3.16952 5.84188 3.49046L0.23644 9.17715C-0.0763724 9.49321 -0.0796224 10.0221 0.23644 10.3382L5.84269 16.0249C6.16038 16.3458 6.67469 16.345 6.99156 16.0249C7.30925 15.7048 7.30925 15.1848 6.99156 14.8646L2.76575 10.5779Z" fill="#121313"/>
<path d="M25.7644 15.6624L20.1581 9.97575C19.8404 9.65481 19.3261 9.65563 19.0093 9.97575C18.6916 10.2959 18.6916 10.8159 19.0093 11.136L23.2343 15.4219H10.5649C10.1164 15.4219 9.75244 15.7892 9.75244 16.2426C9.75244 16.6959 10.1164 17.0632 10.5649 17.0632H23.2343L19.0093 21.3491C18.6916 21.6701 18.6916 22.1893 19.0093 22.5094C19.3269 22.8303 19.8413 22.8303 20.1581 22.5094L25.7636 16.8227C26.0772 16.5074 26.0804 15.9785 25.7644 15.6624Z" fill="#121313"/>
</g>
<defs>
<clipPath id="clip0_885_265">
<rect width="26" height="26" fill="white"/>
</clipPath>
</defs>
</svg>
