<svg width="25" height="25" viewBox="0 0 25 25" fill="none" xmlns="http://www.w3.org/2000/svg">
<path d="M12.4992 3.40771C11.2452 3.40771 10.2253 4.42756 10.2253 5.68158C10.2253 6.93559 11.2452 7.95538 12.4992 7.95538C13.7532 7.95538 14.773 6.93553 14.773 5.68158C14.773 4.42762 13.7532 3.40771 12.4992 3.40771ZM12.4992 6.81904C11.8722 6.81904 11.3617 6.30858 11.3617 5.68158C11.3617 5.05457 11.8722 4.54411 12.4992 4.54411C13.1262 4.54411 13.6367 5.05457 13.6367 5.68158C13.6367 6.30858 13.1262 6.81904 12.4992 6.81904Z" fill="#1D1D1D"/>
<path d="M24.4318 10.2273C24.7459 10.2273 25 9.97466 25 9.66065V7.38817C25 7.18789 24.8946 7.00204 24.722 6.89993L13.6075 0.299402C13.6025 0.296046 13.5975 0.293276 13.5925 0.290507C12.9017 -0.0923232 12.1227 -0.103935 11.3919 0.298284L0.278 6.89993C0.105415 7.00199 0 7.18789 0 7.38817V9.66065C0 9.97466 0.254137 10.2273 0.568199 10.2273H2.27274V20.455C1.01926 20.455 0 21.4741 0 22.7275V24.4319C0 24.7459 0.254137 25 0.568199 25H24.4318C24.7459 25 25 24.7459 25 24.4319V22.7275C25 21.4741 23.9807 20.455 22.7273 20.455V10.2273H24.4318ZM23.8636 22.7273V23.8636H1.13634V22.7273C1.13634 22.1008 1.64627 21.5909 2.27269 21.5909H2.84089H22.1591H22.7273C23.3537 21.5909 23.8636 22.1008 23.8636 22.7273ZM3.40909 20.4545V10.2273H5.68183V20.4545H3.40909ZM6.81817 20.4545V10.2273H10.2273V20.4545H6.81817ZM11.3636 20.4545V10.2273H13.6363V20.4545H11.3636ZM14.7727 20.4545V10.2273H18.1818V20.4545H14.7727ZM19.3182 20.4545V10.2273H21.5909V20.4545H19.3182ZM1.13634 9.09091V7.70985L11.9557 1.28228C12.3097 1.08754 12.6859 1.08807 13.0354 1.2784L23.8636 7.70985V9.09091H1.13634Z" fill="#1D1D1D"/>
</svg>
