<svg width="34" height="35" viewBox="0 0 34 35" fill="none" xmlns="http://www.w3.org/2000/svg">
<path d="M16.8801 9.96942C15.4367 9.96926 14.0257 10.3971 12.8255 11.1989C11.6253 12.0007 10.6898 13.1404 10.1373 14.4739C9.58481 15.8074 9.44018 17.2747 9.72167 18.6904C10.0032 20.1061 10.6981 21.4065 11.7187 22.4272C12.7393 23.4479 14.0396 24.143 15.4553 24.4247C16.8709 24.7063 18.3383 24.5619 19.6719 24.0095C21.0054 23.4572 22.1452 22.5218 22.9471 21.3217C23.7491 20.1216 24.1771 18.7106 24.1771 17.2672C24.1749 15.3325 23.4055 13.4777 22.0375 12.1096C20.6696 10.7415 18.8148 9.9718 16.8801 9.96942ZM19.2522 14.5737H16.8801C16.6591 14.5737 16.4471 14.6615 16.2908 14.8178C16.1345 14.9741 16.0466 15.1861 16.0466 15.4072C16.0466 15.6282 16.1345 15.8402 16.2908 15.9965C16.4471 16.1528 16.6591 16.2407 16.8801 16.2407H16.903C17.4709 16.2411 18.0154 16.4668 18.417 16.8683C18.8187 17.2698 19.0446 17.8142 19.0453 18.3821V18.5915C19.0444 19.0489 18.8973 19.494 18.6256 19.8619C18.3538 20.2298 17.9715 20.5011 17.5345 20.6363V21.9451H16.2258V20.7345H14.5899V19.4258H16.8998C17.1208 19.4256 17.3326 19.3377 17.4889 19.1814C17.6452 19.0251 17.733 18.8133 17.7333 18.5923V18.3829C17.7328 18.162 17.6448 17.9504 17.4886 17.7943C17.3324 17.6382 17.1206 17.5504 16.8998 17.5502H16.8769C16.366 17.5503 15.872 17.3679 15.4838 17.0358C15.0956 16.7037 14.8389 16.2438 14.7599 15.7391C14.681 15.2344 14.785 14.7181 15.0531 14.2834C15.3213 13.8486 15.736 13.5239 16.2225 13.368V12.1476H17.5312V13.265H19.2489L19.2522 14.5737Z" fill="#2E2E2E" fill-opacity="0.65"/>
<path d="M16.8802 6.72546C14.7951 6.72482 12.7567 7.34253 11.0227 8.50048C9.28865 9.65843 7.93698 11.3046 7.13859 13.2308C6.34021 15.157 6.13098 17.2767 6.53737 19.3218C6.94376 21.3669 7.9475 23.2456 9.42167 24.7202C10.8958 26.1948 12.7742 27.1992 14.8192 27.6062C16.8642 28.0132 18.9839 27.8047 20.9104 27.0069C22.8368 26.2091 24.4834 24.8579 25.6419 23.1243C26.8004 21.3906 27.4187 19.3523 27.4187 17.2672C27.4187 14.4719 26.3085 11.7911 24.3323 9.81423C22.356 7.83736 19.6755 6.72633 16.8802 6.72546ZM16.8802 25.8729C15.1778 25.8737 13.5134 25.3696 12.0975 24.4244C10.6817 23.4791 9.5779 22.1352 8.92589 20.5626C8.27388 18.99 8.10291 17.2594 8.4346 15.5896C8.76629 13.9198 9.58573 12.3859 10.7893 11.1819C11.9929 9.97785 13.5265 9.15782 15.1961 8.82549C16.8658 8.49317 18.5965 8.66349 20.1693 9.3149C21.7422 9.96631 23.0865 11.0695 24.0323 12.4851C24.9781 13.9006 25.4828 15.5648 25.4827 17.2672C25.4798 19.5482 24.5727 21.7349 22.9602 23.3481C21.3476 24.9613 19.1612 25.8692 16.8802 25.8729Z" fill="black" fill-opacity="0.65"/>
<path d="M29.08 29.2813C31.3977 26.9133 32.984 23.9277 33.6492 20.6816C34.3143 17.4356 34.03 14.0667 32.8303 10.978C29.3868 2.12774 19.384 -2.2712 10.533 1.17319L11.0671 2.54572C19.1648 -0.604217 28.3087 3.41765 31.4586 11.5121C32.5558 14.3377 32.8152 17.4196 32.206 20.3888C31.5967 23.3581 30.1445 26.0888 28.0232 28.254L26.9763 27.234C26.8661 27.1265 26.7264 27.0541 26.5751 27.026C26.4237 26.9979 26.2674 27.0153 26.1259 27.0761C25.9845 27.1369 25.8643 27.2383 25.7805 27.3674C25.6967 27.4966 25.6531 27.6477 25.6553 27.8016L25.6945 30.5737C25.6975 30.7795 25.7821 30.9758 25.9296 31.1195C26.0771 31.2632 26.2755 31.3425 26.4814 31.3401L29.2534 31.3074C29.4073 31.3055 29.5572 31.258 29.684 31.1709C29.8109 31.0838 29.9091 30.961 29.9662 30.8181C30.0233 30.6752 30.0367 30.5186 30.0048 30.3681C29.9728 30.2175 29.8969 30.0799 29.7867 29.9725L29.08 29.2813Z" fill="black" fill-opacity="0.65"/>
<path d="M10.8969 31.4751C8.56359 30.4509 6.51386 28.8755 4.92376 26.8843C3.33367 24.8932 2.25074 22.5457 1.76804 20.0437C1.28533 17.5417 1.41727 14.9599 2.15252 12.5201C2.88777 10.0803 4.20435 7.85547 5.98915 6.03677L6.91671 6.93652C7.02691 7.04402 7.16653 7.11641 7.3179 7.14452C7.46926 7.17262 7.62557 7.15518 7.76702 7.0944C7.90846 7.03361 8.02869 6.93223 8.11248 6.80307C8.19627 6.67391 8.23985 6.5228 8.2377 6.36886L8.19844 3.59682C8.19716 3.49481 8.17578 3.39405 8.13553 3.30031C8.09528 3.20657 8.03695 3.12168 7.96387 3.0505C7.89079 2.97932 7.8044 2.92324 7.70963 2.88547C7.61486 2.84771 7.51358 2.82899 7.41157 2.8304L4.63953 2.86311C4.48441 2.86354 4.33296 2.91033 4.20464 2.99747C4.07631 3.08462 3.97697 3.20814 3.91938 3.35216C3.86179 3.49619 3.84857 3.65415 3.88143 3.80575C3.91428 3.95735 3.99171 4.09566 4.10377 4.20292L4.93235 5.01024C2.17214 7.82166 0.459458 11.4946 0.080055 15.4162C-0.299348 19.3378 0.677475 23.2709 2.84755 26.5593C5.01762 29.8477 8.2497 32.2925 12.0045 33.4859C15.7594 34.6792 19.8099 34.5489 23.4802 33.1167L22.9469 31.745C21.0203 32.4989 18.9632 32.8633 16.8949 32.8169C14.8265 32.7706 12.7878 32.3145 10.8969 31.4751Z" fill="black" fill-opacity="0.65"/>
</svg>
