<svg width="53" height="56" viewBox="0 0 53 56" fill="none" xmlns="http://www.w3.org/2000/svg">
<path d="M27.3169 5.015L47.1919 13.4149C47.9648 13.7416 48.5832 14.7216 48.5832 15.5849V23.3316C48.5832 24.6149 47.5894 25.6649 46.3748 25.6649H6.62484C5.41025 25.6649 4.4165 24.6149 4.4165 23.3316V15.5849C4.4165 14.7216 5.03485 13.7416 5.80776 13.4149L25.6828 5.015C26.1244 4.82833 26.8752 4.82833 27.3169 5.015Z" stroke="#1D1D1D" stroke-width="3" stroke-miterlimit="10" stroke-linecap="round" stroke-linejoin="round"/>
<path d="M48.5832 51.3333H4.4165V44.3333C4.4165 43.05 5.41025 42 6.62484 42H46.3748C47.5894 42 48.5832 43.05 48.5832 44.3333V51.3333Z" stroke="#1D1D1D" stroke-width="3" stroke-miterlimit="10" stroke-linecap="round" stroke-linejoin="round"/>
<path d="M8.8335 42.0013V25.668" stroke="#1D1D1D" stroke-width="3" stroke-miterlimit="10" stroke-linecap="round" stroke-linejoin="round"/>
<path d="M17.6667 42.0013V25.668" stroke="#1D1D1D" stroke-width="3" stroke-miterlimit="10" stroke-linecap="round" stroke-linejoin="round"/>
<path d="M26.5 42.0013V25.668" stroke="#1D1D1D" stroke-width="3" stroke-miterlimit="10" stroke-linecap="round" stroke-linejoin="round"/>
<path d="M35.3333 42.0013V25.668" stroke="#1D1D1D" stroke-width="3" stroke-miterlimit="10" stroke-linecap="round" stroke-linejoin="round"/>
<path d="M44.1667 42.0013V25.668" stroke="#1D1D1D" stroke-width="3" stroke-miterlimit="10" stroke-linecap="round" stroke-linejoin="round"/>
<path d="M2.2085 51.332H50.7918" stroke="#1D1D1D" stroke-width="3" stroke-miterlimit="10" stroke-linecap="round" stroke-linejoin="round"/>
<path d="M26.5 19.832C28.3294 19.832 29.8125 18.265 29.8125 16.332C29.8125 14.399 28.3294 12.832 26.5 12.832C24.6706 12.832 23.1875 14.399 23.1875 16.332C23.1875 18.265 24.6706 19.832 26.5 19.832Z" stroke="#1D1D1D" stroke-width="3" stroke-miterlimit="10" stroke-linecap="round" stroke-linejoin="round"/>
</svg>
