<svg width="50" height="50" viewBox="0 0 50 50" fill="none" xmlns="http://www.w3.org/2000/svg">
<circle cx="25" cy="25" r="25" fill="#1D1D1D"/>
<path d="M15.5007 15.3496L11.2329 10.0737H38.9531L27.2203 22.7744V33.9281L25.8119 35.4531V15.9643L27.2203 14.4392V20.4594L35.2073 11.816H16.446C15.98 11.816 15.5597 12.0878 15.2943 12.5621C15.0289 13.0383 14.9713 13.6202 15.1365 14.1602L15.5008 15.3496H15.5007Z" fill="white"/>
<path d="M34.4523 32.7242L38.7202 38H11L22.7329 25.2976V14.1457L24.1412 12.6206V32.1094L22.7329 33.6327V27.6144L14.7458 36.2579H33.507C33.9731 36.2579 34.3934 35.986 34.6588 35.51C34.9243 35.0356 34.9817 34.4537 34.8151 33.9137L34.4523 32.7243L34.4523 32.7242Z" fill="white"/>
<path fill-rule="evenodd" clip-rule="evenodd" d="M11.1732 10L15.4411 15.2758L15.0768 14.0864C14.9116 13.5464 14.9691 12.9644 15.2346 12.4883C15.5 12.014 15.9204 11.7421 16.3863 11.7421H35.1476L27.1606 20.3856V14.3656L25.7522 15.8907V35.3797L27.1606 33.8544V22.7008L38.8933 10.0001H11.1732L11.1732 10Z" fill="white"/>
</svg>
