<svg width="30" height="20" viewBox="0 0 30 20" fill="none" xmlns="http://www.w3.org/2000/svg">
<path d="M26.3208 0H3.67924C1.65 0 0 1.64366 0 3.66197V16.338C0 18.3577 1.65141 20 3.67924 20H26.3208C28.35 20 30 18.3563 30 16.338V3.66197C30 1.64225 28.35 0 26.3208 0ZM28.3019 16.338C28.3019 17.4254 27.4118 18.3099 26.3208 18.3099H3.67924C2.58679 18.3099 1.69811 17.4254 1.69811 16.338V7.09014H28.3019V16.338ZM28.3019 5.39859H1.69811V3.66197C1.69811 2.57465 2.58679 1.69014 3.67924 1.69014H26.3208C27.4118 1.69014 28.3019 2.57465 28.3019 3.66197V5.39859ZM19.8113 14.8423C19.8113 14.3746 20.192 13.9972 20.6604 13.9972H23.4906C23.959 13.9972 24.3396 14.3761 24.3396 14.8423C24.3396 15.3084 23.959 15.6873 23.4906 15.6873H20.6604C20.192 15.6873 19.8113 15.3084 19.8113 14.8423Z" fill="black"/>
</svg>
