<svg width="37" height="37" viewBox="0 0 37 37" fill="none" xmlns="http://www.w3.org/2000/svg">
<path d="M6.91671 15.5419H1V27.3753H6.91671V15.5419Z" stroke="black" stroke-linecap="round" stroke-linejoin="round"/>
<path d="M36.4997 15.5419H30.583V27.3753H36.4997V15.5419Z" stroke="black" stroke-linecap="round" stroke-linejoin="round"/>
<path d="M3.95776 15.5418C3.95776 11.6188 5.51618 7.85641 8.29018 5.08241C11.0642 2.30842 14.8265 0.75 18.7495 0.75C22.6726 0.75 26.4349 2.30842 29.2089 5.08241C31.9829 7.85641 33.5413 11.6188 33.5413 15.5418" stroke="black" stroke-linecap="round" stroke-linejoin="round"/>
<path d="M33.5423 27.3752V30.3335C33.5423 31.1181 33.2306 31.8706 32.6758 32.4254C32.121 32.9802 31.3686 33.2919 30.5839 33.2919H24.6672" stroke="black" stroke-linecap="round" stroke-linejoin="round"/>
<path d="M24.667 30.3334H18.7502V36.2501H24.667V30.3334Z" stroke="black" stroke-linecap="round" stroke-linejoin="round"/>
<path d="M12.833 12.5833V27.3751L15.7914 24.4167H24.6664V12.5833H12.833Z" stroke="black" stroke-linecap="round" stroke-linejoin="round"/>
</svg>
