<svg width="40" height="40" viewBox="0 0 40 40" fill="none" xmlns="http://www.w3.org/2000/svg">
<circle cx="20" cy="20" r="20" fill="#1D1D1D"/>
<path d="M25.594 23.798C25.594 24.502 25.418 25.1767 25.066 25.822C24.714 26.4527 24.1933 26.9807 23.504 27.406C22.8293 27.8313 22.0153 28.0733 21.062 28.132V29.914H19.874V28.132C18.5393 28.0147 17.454 27.5893 16.618 26.856C15.782 26.108 15.3567 25.162 15.342 24.018H17.476C17.5347 24.634 17.762 25.1693 18.158 25.624C18.5687 26.0787 19.1407 26.3647 19.874 26.482V20.982C18.8913 20.7327 18.0993 20.476 17.498 20.212C16.8967 19.948 16.3833 19.5373 15.958 18.98C15.5327 18.4227 15.32 17.6747 15.32 16.736C15.32 15.548 15.7307 14.5653 16.552 13.788C17.388 13.0107 18.4953 12.578 19.874 12.49V10.664H21.062V12.49C22.3087 12.5927 23.3133 12.996 24.076 13.7C24.8387 14.3893 25.2787 15.2913 25.396 16.406H23.262C23.1887 15.8927 22.9613 15.4307 22.58 15.02C22.1987 14.5947 21.6927 14.316 21.062 14.184V19.552C22.03 19.8013 22.8147 20.058 23.416 20.322C24.032 20.5713 24.5453 20.9747 24.956 21.532C25.3813 22.0893 25.594 22.8447 25.594 23.798ZM17.366 16.626C17.366 17.3447 17.5787 17.8947 18.004 18.276C18.4293 18.6573 19.0527 18.9727 19.874 19.222V14.14C19.1113 14.2133 18.5027 14.4627 18.048 14.888C17.5933 15.2987 17.366 15.878 17.366 16.626ZM21.062 26.504C21.854 26.416 22.47 26.13 22.91 25.646C23.3647 25.162 23.592 24.5827 23.592 23.908C23.592 23.1893 23.372 22.6393 22.932 22.258C22.492 21.862 21.8687 21.5467 21.062 21.312V26.504Z" fill="white"/>
</svg>
