<svg width="29" height="23" viewBox="0 0 29 23" fill="none" xmlns="http://www.w3.org/2000/svg">
<path d="M24.1667 0.625H4.83333C2.175 0.625 0 2.8 0 5.45833V17.5417C0 20.2 2.175 22.375 4.83333 22.375H24.1667C26.825 22.375 29 20.2 29 17.5417V5.45833C29 2.8 26.825 0.625 24.1667 0.625ZM26.1 7.63333L16.5542 14.0375C15.95 14.4 15.225 14.6417 14.5 14.6417C13.775 14.6417 13.05 14.4 12.4458 14.0375L2.9 7.63333C2.41667 7.27083 2.29583 6.54583 2.65833 5.94167C3.02083 5.45833 3.74583 5.3375 4.35 5.7L13.8958 12.1042C14.2583 12.3458 14.8625 12.3458 15.225 12.1042L24.7708 5.7C25.375 5.3375 26.1 5.45833 26.4625 6.0625C26.7042 6.54583 26.5833 7.27083 26.1 7.63333Z" fill="black"/>
</svg>
