<svg width="28" height="28" viewBox="0 0 28 28" fill="none" xmlns="http://www.w3.org/2000/svg">
<path d="M10.3822 1.52284C10.8532 1.04079 11.4159 0.657748 12.0371 0.396232C12.6583 0.134716 13.3255 0 13.9994 0C14.6734 0 15.3406 0.134716 15.9618 0.396232C16.583 0.657748 17.1456 1.04079 17.6167 1.52284L18.7052 2.63934L20.2627 2.62009C20.9369 2.61211 21.6059 2.73902 22.2303 2.99335C22.8547 3.24767 23.422 3.62429 23.8987 4.10105C24.3755 4.5778 24.7521 5.14507 25.0064 5.7695C25.2608 6.39393 25.3877 7.0629 25.3797 7.73709L25.3622 9.29459L26.4752 10.3831C26.9572 10.8541 27.3403 11.4168 27.6018 12.038C27.8633 12.6592 27.998 13.3264 27.998 14.0003C27.998 14.6743 27.8633 15.3415 27.6018 15.9627C27.3403 16.5839 26.9572 17.1465 26.4752 17.6176L25.3604 18.7061L25.3797 20.2636C25.3877 20.9378 25.2608 21.6068 25.0064 22.2312C24.7521 22.8556 24.3755 23.4229 23.8987 23.8996C23.422 24.3764 22.8547 24.753 22.2303 25.0073C21.6059 25.2617 20.9369 25.3886 20.2627 25.3806L18.7052 25.3631L17.6167 26.4761C17.1456 26.9581 16.583 27.3412 15.9618 27.6027C15.3406 27.8642 14.6734 27.9989 13.9994 27.9989C13.3255 27.9989 12.6583 27.8642 12.0371 27.6027C11.4159 27.3412 10.8532 26.9581 10.3822 26.4761L9.29369 25.3613L7.73619 25.3806C7.06201 25.3886 6.39303 25.2617 5.7686 25.0073C5.14418 24.753 4.5769 24.3764 4.10015 23.8996C3.62339 23.4229 3.24678 22.8556 2.99245 22.2312C2.73812 21.6068 2.61122 20.9378 2.6192 20.2636L2.6367 18.7061L1.5237 17.6176C1.04164 17.1465 0.658602 16.5839 0.397086 15.9627C0.135571 15.3415 0.000854492 14.6743 0.000854492 14.0003C0.000854492 13.3264 0.135571 12.6592 0.397086 12.038C0.658602 11.4168 1.04164 10.8541 1.5237 10.3831L2.63845 9.29459L2.6192 7.73709C2.61122 7.0629 2.73812 6.39393 2.99245 5.7695C3.24678 5.14507 3.62339 4.5778 4.10015 4.10105C4.5769 3.62429 5.14418 3.24767 5.7686 2.99335C6.39303 2.73902 7.06201 2.61211 7.73619 2.62009L9.29369 2.63759L10.3822 1.52284ZM12.2529 19.2503C12.2529 19.4802 12.2982 19.7077 12.3862 19.92C12.4741 20.1324 12.603 20.3253 12.7655 20.4878C12.928 20.6503 13.1209 20.7792 13.3332 20.8671C13.5456 20.9551 13.7731 21.0003 14.0029 21.0003C14.2328 21.0003 14.4603 20.9551 14.6726 20.8671C14.885 20.7792 15.0779 20.6503 15.2404 20.4878C15.4029 20.3253 15.5318 20.1324 15.6197 19.92C15.7077 19.7077 15.7529 19.4802 15.7529 19.2503C15.7529 18.7862 15.5686 18.3411 15.2404 18.0129C14.9122 17.6847 14.4671 17.5003 14.0029 17.5003C13.5388 17.5003 13.0937 17.6847 12.7655 18.0129C12.4373 18.3411 12.2529 18.7862 12.2529 19.2503ZM15.0564 15.7031C15.1264 14.7686 15.4029 14.2768 16.5369 13.4981C17.7164 12.6668 18.3744 11.5906 18.3744 10.0226C18.3744 7.70384 16.7644 6.12534 14.4159 6.12534C12.6309 6.12534 11.2799 6.98634 10.7409 8.38284C10.5776 8.76425 10.4954 9.17545 10.4994 9.59034C10.4994 10.2781 10.8547 10.7103 11.4532 10.7103C11.9292 10.7103 12.2494 10.4531 12.4402 9.81784C12.7167 8.78184 13.3589 8.21659 14.3197 8.21659C15.3872 8.21659 16.1222 8.99709 16.1222 10.1136C16.1222 11.0988 15.7582 11.6623 14.6837 12.4323C13.6004 13.1901 13.0632 14.0318 13.0632 15.3023V15.4966C13.0632 16.2456 13.4272 16.8003 14.0869 16.8003C14.6749 16.8003 14.9689 16.3803 15.0564 15.7031Z" fill="black"/>
</svg>
