<svg width="17" height="17" viewBox="0 0 17 17" fill="none" xmlns="http://www.w3.org/2000/svg">
<path fill-rule="evenodd" clip-rule="evenodd" d="M0.915161 4.6714C0.972452 4.75437 1.15584 4.87126 1.25001 4.94567C1.37612 5.0461 1.4805 5.12018 1.60232 5.21764C1.81535 5.38787 3.61606 6.7984 3.69014 6.82112C3.92655 6.26467 3.84554 6.32723 4.20213 5.74543C4.31309 5.56467 4.40527 5.44054 4.52611 5.27822C4.94855 4.70992 5.67259 4.1436 6.29324 3.83805C7.9168 3.03895 10.1004 3.18942 11.505 4.41689L11.7296 4.60884L14.1091 2.23984C14.0469 2.15028 13.8697 2.00475 13.7795 1.93429C13.4526 1.67846 13.2583 1.50989 12.879 1.27249C12.258 0.884299 11.6832 0.614638 10.9354 0.3835C10.6124 0.283736 10.2947 0.204383 9.92625 0.142812C9.62662 0.0927651 9.38955 0.0611601 9.08433 0.0476606C8.98786 0.0433803 8.90324 0.0137475 8.81269 0.00683315C8.62732 -0.00732487 8.38006 0.004856 8.1881 0.00518526L7.62046 0.0621459C6.98038 0.146106 6.63072 0.197468 6.03641 0.372962C5.87343 0.421033 5.72066 0.472397 5.56788 0.529358C5.03086 0.729875 4.36676 1.04662 3.89888 1.35941C3.60848 1.55367 3.06982 1.92969 2.82057 2.17663C2.70862 2.28759 2.61017 2.36694 2.49823 2.47888C2.28421 2.6929 2.10247 2.90395 1.9059 3.13608L1.37843 3.85847C1.30435 3.97009 0.960936 4.53904 0.915499 4.67107L0.915161 4.6714Z" fill="#EA4335"/>
<path fill-rule="evenodd" clip-rule="evenodd" d="M0.917236 12.2732C0.937979 12.3411 0.97616 12.4115 1.0104 12.4748C1.18458 12.7974 1.5201 13.3348 1.74861 13.611C2.2234 14.1852 2.27376 14.258 2.7897 14.7358L3.4614 15.2932C3.58553 15.3804 3.70109 15.4601 3.83213 15.5474C4.07875 15.712 4.34611 15.8714 4.62071 16.0083C5.74512 16.5687 6.54125 16.761 7.76872 16.9009C7.84972 16.9102 7.96792 16.9085 8.06176 16.92C8.16975 16.9335 8.1691 16.9609 8.33439 16.9599C8.43876 16.9592 8.54412 16.9612 8.64816 16.9602C8.77756 16.9592 8.80423 16.9306 8.89938 16.92C9.73405 16.8272 9.85159 16.8763 10.8048 16.6389C11.2364 16.5315 11.9582 16.2675 12.3826 16.0505C12.7082 15.8839 13.0572 15.6695 13.3539 15.4598L13.7869 15.122C13.859 15.0591 13.9874 14.9685 14.043 14.8974C13.9936 14.7871 11.6813 13.0839 11.3747 12.7938C10.845 13.0816 10.9622 13.0572 10.3909 13.2877C9.46505 13.6614 8.10028 13.7065 7.13556 13.4309C6.64662 13.291 6.26138 13.1175 5.83994 12.8524L5.50245 12.6275C4.97959 12.2525 4.50316 11.6954 4.16534 11.1531C4.05109 10.9697 3.73962 10.3504 3.69056 10.1252C3.59079 10.1693 3.11996 10.5572 2.98891 10.6553L0.917558 12.2736L0.917236 12.2732Z" fill="#34A853"/>
<path fill-rule="evenodd" clip-rule="evenodd" d="M11.3742 12.7938C11.6807 13.0835 13.9934 14.7871 14.0425 14.8974C14.1376 14.8302 14.2858 14.6626 14.3793 14.5695L14.6928 14.2165C15.3542 13.4292 15.7997 12.5831 16.1263 11.6094C16.2939 11.1096 16.4128 10.5216 16.4898 9.97338C16.5063 9.85682 16.5135 9.78932 16.5201 9.67046C16.5244 9.59045 16.5336 9.43635 16.5461 9.34219C16.64 8.62606 16.556 8.14798 16.4981 7.4628C16.4875 7.33702 16.4342 6.96167 16.3944 6.87903H8.45928C8.42932 7.01962 8.4876 9.60559 8.45764 10.0675C8.44678 10.2364 8.37005 10.1907 9.04239 10.1907C10.3752 10.1907 11.7081 10.1907 13.0412 10.1907C13.0412 10.4241 12.8835 10.8436 12.8121 11.0237C12.711 11.2779 12.5852 11.4985 12.4413 11.7151C12.2164 12.0533 11.9846 12.2992 11.6814 12.5587C11.581 12.6446 11.4739 12.7098 11.3742 12.7941V12.7938Z" fill="#4285F4"/>
<path fill-rule="evenodd" clip-rule="evenodd" d="M0.917023 12.2732L2.98836 10.655C3.11941 10.5568 3.59024 10.169 3.69001 10.1249C3.65906 10.0004 3.61658 9.89767 3.58168 9.75707C3.46776 9.29875 3.41937 8.99946 3.41937 8.48253C3.41937 8.15031 3.43649 7.8813 3.49411 7.59913C3.52473 7.45031 3.54283 7.34428 3.57773 7.20369C3.61493 7.05421 3.65643 6.95083 3.69035 6.8211C3.61626 6.79805 1.81556 5.38752 1.60253 5.21763C1.4807 5.12017 1.37632 5.04608 1.25022 4.94566C1.15605 4.87125 0.972658 4.75436 0.915367 4.67139C0.834041 4.78728 0.790916 4.92031 0.725723 5.05991C0.548254 5.43987 0.370128 5.95581 0.266083 6.37034C-0.192241 8.19245 -0.0503312 9.95759 0.628924 11.6691C0.681934 11.8027 0.852152 12.1876 0.917345 12.2729L0.917023 12.2732Z" fill="#FBBC05"/>
</svg>
