<svg width="334" height="250" viewBox="0 0 334 250" fill="none" xmlns="http://www.w3.org/2000/svg">
<rect width="334" height="250" rx="14" fill="#212121"/>
<path d="M28.48 191.008C28.48 190.085 28.6347 189.365 28.944 188.848C29.2587 188.325 29.7973 188.064 30.56 188.064C31.3227 188.064 31.8587 188.325 32.168 188.848C32.4827 189.365 32.64 190.085 32.64 191.008C32.64 191.941 32.4827 192.672 32.168 193.2C31.8587 193.723 31.3227 193.984 30.56 193.984C29.7973 193.984 29.2587 193.723 28.944 193.2C28.6347 192.672 28.48 191.941 28.48 191.008ZM31.744 191.008C31.744 190.576 31.7147 190.211 31.656 189.912C31.6027 189.613 31.4907 189.371 31.32 189.184C31.1493 188.992 30.896 188.896 30.56 188.896C30.224 188.896 29.9707 188.992 29.8 189.184C29.6293 189.371 29.5147 189.613 29.456 189.912C29.4027 190.211 29.376 190.576 29.376 191.008C29.376 191.456 29.4027 191.832 29.456 192.136C29.5093 192.44 29.6213 192.685 29.792 192.872C29.968 193.059 30.224 193.152 30.56 193.152C30.896 193.152 31.1493 193.059 31.32 192.872C31.496 192.685 31.6107 192.44 31.664 192.136C31.7173 191.832 31.744 191.456 31.744 191.008ZM34.093 194.056C33.9277 194.056 33.789 194 33.677 193.888C33.565 193.776 33.509 193.637 33.509 193.472C33.509 193.307 33.565 193.168 33.677 193.056C33.789 192.944 33.9277 192.888 34.093 192.888C34.253 192.888 34.389 192.944 34.501 193.056C34.613 193.168 34.669 193.307 34.669 193.472C34.669 193.637 34.613 193.776 34.501 193.888C34.389 194 34.253 194.056 34.093 194.056ZM35.5347 191.008C35.5347 190.085 35.6894 189.365 35.9987 188.848C36.3134 188.325 36.852 188.064 37.6147 188.064C38.3774 188.064 38.9134 188.325 39.2227 188.848C39.5374 189.365 39.6947 190.085 39.6947 191.008C39.6947 191.941 39.5374 192.672 39.2227 193.2C38.9134 193.723 38.3774 193.984 37.6147 193.984C36.852 193.984 36.3134 193.723 35.9987 193.2C35.6894 192.672 35.5347 191.941 35.5347 191.008ZM38.7987 191.008C38.7987 190.576 38.7694 190.211 38.7107 189.912C38.6574 189.613 38.5454 189.371 38.3747 189.184C38.204 188.992 37.9507 188.896 37.6147 188.896C37.2787 188.896 37.0254 188.992 36.8547 189.184C36.684 189.371 36.5694 189.613 36.5107 189.912C36.4574 190.211 36.4307 190.576 36.4307 191.008C36.4307 191.456 36.4574 191.832 36.5107 192.136C36.564 192.44 36.676 192.685 36.8467 192.872C37.0227 193.059 37.2787 193.152 37.6147 193.152C37.9507 193.152 38.204 193.059 38.3747 192.872C38.5507 192.685 38.6654 192.44 38.7187 192.136C38.772 191.832 38.7987 191.456 38.7987 191.008Z" fill="white"/>
<path d="M27.36 168V167.168H29.024V173H28.104V168H27.36ZM30.2769 170.008C30.2769 169.085 30.4315 168.365 30.7409 167.848C31.0555 167.325 31.5942 167.064 32.3569 167.064C33.1195 167.064 33.6555 167.325 33.9649 167.848C34.2795 168.365 34.4369 169.085 34.4369 170.008C34.4369 170.941 34.2795 171.672 33.9649 172.2C33.6555 172.723 33.1195 172.984 32.3569 172.984C31.5942 172.984 31.0555 172.723 30.7409 172.2C30.4315 171.672 30.2769 170.941 30.2769 170.008ZM33.5409 170.008C33.5409 169.576 33.5115 169.211 33.4529 168.912C33.3995 168.613 33.2875 168.371 33.1169 168.184C32.9462 167.992 32.6929 167.896 32.3569 167.896C32.0209 167.896 31.7675 167.992 31.5969 168.184C31.4262 168.371 31.3115 168.613 31.2529 168.912C31.1995 169.211 31.1729 169.576 31.1729 170.008C31.1729 170.456 31.1995 170.832 31.2529 171.136C31.3062 171.44 31.4182 171.685 31.5889 171.872C31.7649 172.059 32.0209 172.152 32.3569 172.152C32.6929 172.152 32.9462 172.059 33.1169 171.872C33.2929 171.685 33.4075 171.44 33.4609 171.136C33.5142 170.832 33.5409 170.456 33.5409 170.008ZM35.4019 170.008C35.4019 169.085 35.5565 168.365 35.8659 167.848C36.1805 167.325 36.7192 167.064 37.4819 167.064C38.2445 167.064 38.7805 167.325 39.0899 167.848C39.4045 168.365 39.5619 169.085 39.5619 170.008C39.5619 170.941 39.4045 171.672 39.0899 172.2C38.7805 172.723 38.2445 172.984 37.4819 172.984C36.7192 172.984 36.1805 172.723 35.8659 172.2C35.5565 171.672 35.4019 170.941 35.4019 170.008ZM38.6659 170.008C38.6659 169.576 38.6365 169.211 38.5779 168.912C38.5245 168.613 38.4125 168.371 38.2419 168.184C38.0712 167.992 37.8179 167.896 37.4819 167.896C37.1459 167.896 36.8925 167.992 36.7219 168.184C36.5512 168.371 36.4365 168.613 36.3779 168.912C36.3245 169.211 36.2979 169.576 36.2979 170.008C36.2979 170.456 36.3245 170.832 36.3779 171.136C36.4312 171.44 36.5432 171.685 36.7139 171.872C36.8899 172.059 37.1459 172.152 37.4819 172.152C37.8179 172.152 38.0712 172.059 38.2419 171.872C38.4179 171.685 38.5325 171.44 38.5859 171.136C38.6392 170.832 38.6659 170.456 38.6659 170.008Z" fill="white"/>
<path d="M29.24 146.952H26.56V148.544C26.672 148.395 26.8373 148.269 27.056 148.168C27.28 148.067 27.5173 148.016 27.768 148.016C28.216 148.016 28.5787 148.112 28.856 148.304C29.1387 148.496 29.3387 148.739 29.456 149.032C29.5787 149.325 29.64 149.635 29.64 149.96C29.64 150.355 29.5627 150.707 29.408 151.016C29.2587 151.32 29.032 151.56 28.728 151.736C28.4293 151.912 28.0613 152 27.624 152C27.0427 152 26.576 151.856 26.224 151.568C25.872 151.28 25.6613 150.899 25.592 150.424H26.48C26.5387 150.675 26.6693 150.875 26.872 151.024C27.0747 151.168 27.328 151.24 27.632 151.24C28.0107 151.24 28.2933 151.125 28.48 150.896C28.672 150.667 28.768 150.363 28.768 149.984C28.768 149.6 28.672 149.307 28.48 149.104C28.288 148.896 28.0053 148.792 27.632 148.792C27.3707 148.792 27.1493 148.859 26.968 148.992C26.792 149.12 26.664 149.296 26.584 149.52H25.72V146.152H29.24V146.952ZM30.5894 149.008C30.5894 148.085 30.744 147.365 31.0534 146.848C31.368 146.325 31.9067 146.064 32.6694 146.064C33.432 146.064 33.968 146.325 34.2774 146.848C34.592 147.365 34.7494 148.085 34.7494 149.008C34.7494 149.941 34.592 150.672 34.2774 151.2C33.968 151.723 33.432 151.984 32.6694 151.984C31.9067 151.984 31.368 151.723 31.0534 151.2C30.744 150.672 30.5894 149.941 30.5894 149.008ZM33.8534 149.008C33.8534 148.576 33.824 148.211 33.7654 147.912C33.712 147.613 33.6 147.371 33.4294 147.184C33.2587 146.992 33.0054 146.896 32.6694 146.896C32.3334 146.896 32.08 146.992 31.9094 147.184C31.7387 147.371 31.624 147.613 31.5654 147.912C31.512 148.211 31.4854 148.576 31.4854 149.008C31.4854 149.456 31.512 149.832 31.5654 150.136C31.6187 150.44 31.7307 150.685 31.9014 150.872C32.0774 151.059 32.3334 151.152 32.6694 151.152C33.0054 151.152 33.2587 151.059 33.4294 150.872C33.6054 150.685 33.72 150.44 33.7734 150.136C33.8267 149.832 33.8534 149.456 33.8534 149.008ZM35.7144 149.008C35.7144 148.085 35.869 147.365 36.1784 146.848C36.493 146.325 37.0317 146.064 37.7944 146.064C38.557 146.064 39.093 146.325 39.4024 146.848C39.717 147.365 39.8744 148.085 39.8744 149.008C39.8744 149.941 39.717 150.672 39.4024 151.2C39.093 151.723 38.557 151.984 37.7944 151.984C37.0317 151.984 36.493 151.723 36.1784 151.2C35.869 150.672 35.7144 149.941 35.7144 149.008ZM38.9784 149.008C38.9784 148.576 38.949 148.211 38.8904 147.912C38.837 147.613 38.725 147.371 38.5544 147.184C38.3837 146.992 38.1304 146.896 37.7944 146.896C37.4584 146.896 37.205 146.992 37.0344 147.184C36.8637 147.371 36.749 147.613 36.6904 147.912C36.637 148.211 36.6104 148.576 36.6104 149.008C36.6104 149.456 36.637 149.832 36.6904 150.136C36.7437 150.44 36.8557 150.685 37.0264 150.872C37.2024 151.059 37.4584 151.152 37.7944 151.152C38.1304 151.152 38.3837 151.059 38.5544 150.872C38.7304 150.685 38.845 150.44 38.8984 150.136C38.9517 149.832 38.9784 149.456 38.9784 149.008Z" fill="white"/>
<path d="M24.984 129.76C25.496 129.317 25.8987 128.955 26.192 128.672C26.4907 128.384 26.7387 128.085 26.936 127.776C27.1333 127.467 27.232 127.157 27.232 126.848C27.232 126.528 27.1547 126.277 27 126.096C26.8507 125.915 26.6133 125.824 26.288 125.824C25.9733 125.824 25.728 125.925 25.552 126.128C25.3813 126.325 25.2907 126.592 25.28 126.928H24.4C24.416 126.32 24.5973 125.856 24.944 125.536C25.296 125.211 25.7413 125.048 26.28 125.048C26.8613 125.048 27.3147 125.208 27.64 125.528C27.9707 125.848 28.136 126.275 28.136 126.808C28.136 127.192 28.0373 127.563 27.84 127.92C27.648 128.272 27.416 128.589 27.144 128.872C26.8773 129.149 26.536 129.472 26.12 129.84L25.76 130.16H28.296V130.92H24.408V130.256L24.984 129.76ZM29.5852 131.056C29.4199 131.056 29.2812 131 29.1692 130.888C29.0572 130.776 29.0012 130.637 29.0012 130.472C29.0012 130.307 29.0572 130.168 29.1692 130.056C29.2812 129.944 29.4199 129.888 29.5852 129.888C29.7452 129.888 29.8812 129.944 29.9932 130.056C30.1052 130.168 30.1612 130.307 30.1612 130.472C30.1612 130.637 30.1052 130.776 29.9932 130.888C29.8812 131 29.7452 131.056 29.5852 131.056ZM34.1629 126.52C34.1042 126.275 33.9975 126.091 33.8429 125.968C33.6882 125.845 33.4722 125.784 33.1949 125.784C32.7735 125.784 32.4589 125.947 32.2509 126.272C32.0429 126.592 31.9335 127.125 31.9229 127.872C32.0615 127.637 32.2642 127.456 32.5309 127.328C32.7975 127.2 33.0855 127.136 33.3949 127.136C33.7469 127.136 34.0562 127.213 34.3229 127.368C34.5949 127.517 34.8055 127.736 34.9549 128.024C35.1095 128.312 35.1869 128.656 35.1869 129.056C35.1869 129.429 35.1122 129.763 34.9629 130.056C34.8189 130.349 34.6029 130.581 34.3149 130.752C34.0269 130.917 33.6802 131 33.2749 131C32.7255 131 32.2935 130.88 31.9789 130.64C31.6695 130.395 31.4509 130.051 31.3229 129.608C31.2002 129.165 31.1389 128.613 31.1389 127.952C31.1389 126 31.8269 125.024 33.2029 125.024C33.7362 125.024 34.1549 125.168 34.4589 125.456C34.7682 125.744 34.9495 126.099 35.0029 126.52H34.1629ZM33.1949 127.904C32.8695 127.904 32.5922 128.003 32.3629 128.2C32.1389 128.392 32.0269 128.672 32.0269 129.04C32.0269 129.408 32.1309 129.701 32.3389 129.92C32.5522 130.133 32.8482 130.24 33.2269 130.24C33.5629 130.24 33.8269 130.136 34.0189 129.928C34.2162 129.72 34.3149 129.443 34.3149 129.096C34.3149 128.733 34.2189 128.445 34.0269 128.232C33.8402 128.013 33.5629 127.904 33.1949 127.904ZM38.0237 128.8L40.0557 131H38.8237L37.1917 129.104V131H36.2797V125.08H37.1917V128.52L38.7917 126.592H40.0557L38.0237 128.8Z" fill="white"/>
<path d="M28.24 104.952H25.56V106.544C25.672 106.395 25.8373 106.269 26.056 106.168C26.28 106.067 26.5173 106.016 26.768 106.016C27.216 106.016 27.5787 106.112 27.856 106.304C28.1387 106.496 28.3387 106.739 28.456 107.032C28.5787 107.325 28.64 107.635 28.64 107.96C28.64 108.355 28.5627 108.707 28.408 109.016C28.2587 109.32 28.032 109.56 27.728 109.736C27.4293 109.912 27.0613 110 26.624 110C26.0427 110 25.576 109.856 25.224 109.568C24.872 109.28 24.6613 108.899 24.592 108.424H25.48C25.5387 108.675 25.6693 108.875 25.872 109.024C26.0747 109.168 26.328 109.24 26.632 109.24C27.0107 109.24 27.2933 109.125 27.48 108.896C27.672 108.667 27.768 108.363 27.768 107.984C27.768 107.6 27.672 107.307 27.48 107.104C27.288 106.896 27.0053 106.792 26.632 106.792C26.3707 106.792 26.1493 106.859 25.968 106.992C25.792 107.12 25.664 107.296 25.584 107.52H24.72V104.152H28.24V104.952ZM30.0774 110.056C29.912 110.056 29.7734 110 29.6614 109.888C29.5494 109.776 29.4934 109.637 29.4934 109.472C29.4934 109.307 29.5494 109.168 29.6614 109.056C29.7734 108.944 29.912 108.888 30.0774 108.888C30.2374 108.888 30.3734 108.944 30.4854 109.056C30.5974 109.168 30.6534 109.307 30.6534 109.472C30.6534 109.637 30.5974 109.776 30.4854 109.888C30.3734 110 30.2374 110.056 30.0774 110.056ZM35.2151 104.872L32.9911 110H32.0711L34.3191 104.968H31.3591V104.192H35.2151V104.872ZM37.8596 107.8L39.8916 110H38.6596L37.0276 108.104V110H36.1156V104.08H37.0276V107.52L38.6276 105.592H39.8916L37.8596 107.8Z" fill="white"/>
<path d="M19.36 84V83.168H21.024V89H20.104V84H19.36ZM22.2769 86.008C22.2769 85.0853 22.4315 84.3653 22.7409 83.848C23.0555 83.3253 23.5942 83.064 24.3569 83.064C25.1195 83.064 25.6555 83.3253 25.9649 83.848C26.2795 84.3653 26.4369 85.0853 26.4369 86.008C26.4369 86.9413 26.2795 87.672 25.9649 88.2C25.6555 88.7227 25.1195 88.984 24.3569 88.984C23.5942 88.984 23.0555 88.7227 22.7409 88.2C22.4315 87.672 22.2769 86.9413 22.2769 86.008ZM25.5409 86.008C25.5409 85.576 25.5115 85.2107 25.4529 84.912C25.3995 84.6133 25.2875 84.3707 25.1169 84.184C24.9462 83.992 24.6929 83.896 24.3569 83.896C24.0209 83.896 23.7675 83.992 23.5969 84.184C23.4262 84.3707 23.3115 84.6133 23.2529 84.912C23.1995 85.2107 23.1729 85.576 23.1729 86.008C23.1729 86.456 23.1995 86.832 23.2529 87.136C23.3062 87.44 23.4182 87.6853 23.5889 87.872C23.7649 88.0587 24.0209 88.152 24.3569 88.152C24.6929 88.152 24.9462 88.0587 25.1169 87.872C25.2929 87.6853 25.4075 87.44 25.4609 87.136C25.5142 86.832 25.5409 86.456 25.5409 86.008ZM27.8899 89.056C27.7245 89.056 27.5859 89 27.4739 88.888C27.3619 88.776 27.3059 88.6373 27.3059 88.472C27.3059 88.3067 27.3619 88.168 27.4739 88.056C27.5859 87.944 27.7245 87.888 27.8899 87.888C28.0499 87.888 28.1859 87.944 28.2979 88.056C28.4099 88.168 28.4659 88.3067 28.4659 88.472C28.4659 88.6373 28.4099 88.776 28.2979 88.888C28.1859 89 28.0499 89.056 27.8899 89.056ZM33.0916 83.952H30.4116V85.544C30.5236 85.3947 30.6889 85.2693 30.9076 85.168C31.1316 85.0667 31.3689 85.016 31.6196 85.016C32.0676 85.016 32.4302 85.112 32.7076 85.304C32.9902 85.496 33.1902 85.7387 33.3076 86.032C33.4302 86.3253 33.4916 86.6347 33.4916 86.96C33.4916 87.3547 33.4142 87.7067 33.2596 88.016C33.1102 88.32 32.8836 88.56 32.5796 88.736C32.2809 88.912 31.9129 89 31.4756 89C30.8942 89 30.4276 88.856 30.0756 88.568C29.7236 88.28 29.5129 87.8987 29.4436 87.424H30.3316C30.3902 87.6747 30.5209 87.8747 30.7236 88.024C30.9262 88.168 31.1796 88.24 31.4836 88.24C31.8622 88.24 32.1449 88.1253 32.3316 87.896C32.5236 87.6667 32.6196 87.3627 32.6196 86.984C32.6196 86.6 32.5236 86.3067 32.3316 86.104C32.1396 85.896 31.8569 85.792 31.4836 85.792C31.2222 85.792 31.0009 85.8587 30.8196 85.992C30.6436 86.12 30.5156 86.296 30.4356 86.52H29.5716V83.152H33.0916V83.952ZM36.3049 86.8L38.3369 89H37.1049L35.4729 87.104V89H34.5609V83.08H35.4729V86.52L37.0729 84.592H38.3369L36.3049 86.8Z" fill="white"/>
<path d="M27.984 66.76C28.496 66.3173 28.8987 65.9547 29.192 65.672C29.4907 65.384 29.7387 65.0853 29.936 64.776C30.1333 64.4667 30.232 64.1573 30.232 63.848C30.232 63.528 30.1547 63.2773 30 63.096C29.8507 62.9147 29.6133 62.824 29.288 62.824C28.9733 62.824 28.728 62.9253 28.552 63.128C28.3813 63.3253 28.2907 63.592 28.28 63.928H27.4C27.416 63.32 27.5973 62.856 27.944 62.536C28.296 62.2107 28.7413 62.048 29.28 62.048C29.8613 62.048 30.3147 62.208 30.64 62.528C30.9707 62.848 31.136 63.2747 31.136 63.808C31.136 64.192 31.0373 64.5627 30.84 64.92C30.648 65.272 30.416 65.5893 30.144 65.872C29.8773 66.1493 29.536 66.472 29.12 66.84L28.76 67.16H31.296V67.92H27.408V67.256L27.984 66.76ZM35.7932 62.872L33.5692 68H32.6492L34.8972 62.968H31.9372V62.192H35.7932V62.872ZM38.4378 65.8L40.4698 68H39.2378L37.6058 66.104V68H36.6938V62.08H37.6058V65.52L39.2058 63.592H40.4698L38.4378 65.8Z" fill="white"/>
<path d="M17.368 45.784V45.096L20.056 41.24H21.16V44.992H21.904V45.784H21.16V47H20.264V45.784H17.368ZM20.304 42.168L18.416 44.992H20.304V42.168ZM22.6437 42.608C22.6757 42.112 22.865 41.7253 23.2117 41.448C23.5637 41.1707 24.0117 41.032 24.5557 41.032C24.929 41.032 25.2517 41.0987 25.5237 41.232C25.7957 41.3653 26.001 41.5467 26.1397 41.776C26.2784 42.0053 26.3477 42.264 26.3477 42.552C26.3477 42.8827 26.2597 43.1653 26.0837 43.4C25.9077 43.6347 25.697 43.792 25.4517 43.872V43.904C25.7664 44 26.0117 44.176 26.1877 44.432C26.3637 44.6827 26.4517 45.0053 26.4517 45.4C26.4517 45.7147 26.3797 45.9947 26.2357 46.24C26.0917 46.4853 25.8784 46.68 25.5957 46.824C25.313 46.9627 24.9744 47.032 24.5797 47.032C24.0037 47.032 23.529 46.8853 23.1557 46.592C22.7877 46.2933 22.5904 45.8667 22.5637 45.312H23.4437C23.465 45.5947 23.5744 45.8267 23.7717 46.008C23.969 46.184 24.2357 46.272 24.5717 46.272C24.897 46.272 25.1477 46.184 25.3237 46.008C25.4997 45.8267 25.5877 45.5947 25.5877 45.312C25.5877 44.9387 25.4677 44.6747 25.2277 44.52C24.993 44.36 24.6304 44.28 24.1397 44.28H23.9317V43.528H24.1477C24.5797 43.5227 24.9077 43.4507 25.1317 43.312C25.361 43.1733 25.4757 42.9547 25.4757 42.656C25.4757 42.4 25.393 42.1973 25.2277 42.048C25.0624 41.8933 24.8277 41.816 24.5237 41.816C24.225 41.816 23.993 41.8933 23.8277 42.048C23.6624 42.1973 23.5637 42.384 23.5317 42.608H22.6437ZM27.8977 47.056C27.7324 47.056 27.5937 47 27.4817 46.888C27.3697 46.776 27.3137 46.6373 27.3137 46.472C27.3137 46.3067 27.3697 46.168 27.4817 46.056C27.5937 45.944 27.7324 45.888 27.8977 45.888C28.0577 45.888 28.1937 45.944 28.3057 46.056C28.4177 46.168 28.4737 46.3067 28.4737 46.472C28.4737 46.6373 28.4177 46.776 28.3057 46.888C28.1937 47 28.0577 47.056 27.8977 47.056ZM29.3234 42.608C29.3554 42.112 29.5447 41.7253 29.8914 41.448C30.2434 41.1707 30.6914 41.032 31.2354 41.032C31.6087 41.032 31.9314 41.0987 32.2034 41.232C32.4754 41.3653 32.6807 41.5467 32.8194 41.776C32.958 42.0053 33.0274 42.264 33.0274 42.552C33.0274 42.8827 32.9394 43.1653 32.7634 43.4C32.5874 43.6347 32.3767 43.792 32.1314 43.872V43.904C32.446 44 32.6914 44.176 32.8674 44.432C33.0434 44.6827 33.1314 45.0053 33.1314 45.4C33.1314 45.7147 33.0594 45.9947 32.9154 46.24C32.7714 46.4853 32.558 46.68 32.2754 46.824C31.9927 46.9627 31.654 47.032 31.2594 47.032C30.6834 47.032 30.2087 46.8853 29.8354 46.592C29.4674 46.2933 29.27 45.8667 29.2434 45.312H30.1234C30.1447 45.5947 30.254 45.8267 30.4514 46.008C30.6487 46.184 30.9154 46.272 31.2514 46.272C31.5767 46.272 31.8274 46.184 32.0034 46.008C32.1794 45.8267 32.2674 45.5947 32.2674 45.312C32.2674 44.9387 32.1474 44.6747 31.9074 44.52C31.6727 44.36 31.31 44.28 30.8194 44.28H30.6114V43.528H30.8274C31.2594 43.5227 31.5874 43.4507 31.8114 43.312C32.0407 43.1733 32.1554 42.9547 32.1554 42.656C32.1554 42.4 32.0727 42.1973 31.9074 42.048C31.742 41.8933 31.5074 41.816 31.2034 41.816C30.9047 41.816 30.6727 41.8933 30.5074 42.048C30.342 42.1973 30.2434 42.384 30.2114 42.608H29.3234ZM35.9534 44.8L37.9854 47H36.7534L35.1214 45.104V47H34.2094V41.08H35.1214V44.52L36.7214 42.592H37.9854L35.9534 44.8Z" fill="white"/>
<path d="M20.24 20.952H17.56V22.544C17.672 22.3947 17.8373 22.2693 18.056 22.168C18.28 22.0667 18.5173 22.016 18.768 22.016C19.216 22.016 19.5787 22.112 19.856 22.304C20.1387 22.496 20.3387 22.7387 20.456 23.032C20.5787 23.3253 20.64 23.6347 20.64 23.96C20.64 24.3547 20.5627 24.7067 20.408 25.016C20.2587 25.32 20.032 25.56 19.728 25.736C19.4293 25.912 19.0613 26 18.624 26C18.0427 26 17.576 25.856 17.224 25.568C16.872 25.28 16.6613 24.8987 16.592 24.424H17.48C17.5387 24.6747 17.6693 24.8747 17.872 25.024C18.0747 25.168 18.328 25.24 18.632 25.24C19.0107 25.24 19.2933 25.1253 19.48 24.896C19.672 24.6667 19.768 24.3627 19.768 23.984C19.768 23.6 19.672 23.3067 19.48 23.104C19.288 22.896 19.0053 22.792 18.632 22.792C18.3707 22.792 18.1493 22.8587 17.968 22.992C17.792 23.12 17.664 23.296 17.584 23.52H16.72V20.152H20.24V20.952ZM21.5894 23.008C21.5894 22.0853 21.744 21.3653 22.0534 20.848C22.368 20.3253 22.9067 20.064 23.6694 20.064C24.432 20.064 24.968 20.3253 25.2774 20.848C25.592 21.3653 25.7494 22.0853 25.7494 23.008C25.7494 23.9413 25.592 24.672 25.2774 25.2C24.968 25.7227 24.432 25.984 23.6694 25.984C22.9067 25.984 22.368 25.7227 22.0534 25.2C21.744 24.672 21.5894 23.9413 21.5894 23.008ZM24.8534 23.008C24.8534 22.576 24.824 22.2107 24.7654 21.912C24.712 21.6133 24.6 21.3707 24.4294 21.184C24.2587 20.992 24.0054 20.896 23.6694 20.896C23.3334 20.896 23.08 20.992 22.9094 21.184C22.7387 21.3707 22.624 21.6133 22.5654 21.912C22.512 22.2107 22.4854 22.576 22.4854 23.008C22.4854 23.456 22.512 23.832 22.5654 24.136C22.6187 24.44 22.7307 24.6853 22.9014 24.872C23.0774 25.0587 23.3334 25.152 23.6694 25.152C24.0054 25.152 24.2587 25.0587 24.4294 24.872C24.6054 24.6853 24.72 24.44 24.7734 24.136C24.8267 23.832 24.8534 23.456 24.8534 23.008ZM27.2024 26.056C27.037 26.056 26.8984 26 26.7864 25.888C26.6744 25.776 26.6184 25.6373 26.6184 25.472C26.6184 25.3067 26.6744 25.168 26.7864 25.056C26.8984 24.944 27.037 24.888 27.2024 24.888C27.3624 24.888 27.4984 24.944 27.6104 25.056C27.7224 25.168 27.7784 25.3067 27.7784 25.472C27.7784 25.6373 27.7224 25.776 27.6104 25.888C27.4984 26 27.3624 26.056 27.2024 26.056ZM28.6441 23.008C28.6441 22.0853 28.7987 21.3653 29.1081 20.848C29.4227 20.3253 29.9614 20.064 30.7241 20.064C31.4867 20.064 32.0227 20.3253 32.3321 20.848C32.6467 21.3653 32.8041 22.0853 32.8041 23.008C32.8041 23.9413 32.6467 24.672 32.3321 25.2C32.0227 25.7227 31.4867 25.984 30.7241 25.984C29.9614 25.984 29.4227 25.7227 29.1081 25.2C28.7987 24.672 28.6441 23.9413 28.6441 23.008ZM31.9081 23.008C31.9081 22.576 31.8787 22.2107 31.8201 21.912C31.7667 21.6133 31.6547 21.3707 31.4841 21.184C31.3134 20.992 31.0601 20.896 30.7241 20.896C30.3881 20.896 30.1347 20.992 29.9641 21.184C29.7934 21.3707 29.6787 21.6133 29.6201 21.912C29.5667 22.2107 29.5401 22.576 29.5401 23.008C29.5401 23.456 29.5667 23.832 29.6201 24.136C29.6734 24.44 29.7854 24.6853 29.9561 24.872C30.1321 25.0587 30.3881 25.152 30.7241 25.152C31.0601 25.152 31.3134 25.0587 31.4841 24.872C31.6601 24.6853 31.7747 24.44 31.8281 24.136C31.8814 23.832 31.9081 23.456 31.9081 23.008ZM35.6331 23.8L37.6651 26H36.4331L34.8011 24.104V26H33.8891V20.08H34.8011V23.52L36.4011 21.592H37.6651L35.6331 23.8Z" fill="white"/>
<path d="M52 193.75C51.8619 193.75 51.75 193.862 51.75 194C51.75 194.138 51.8619 194.25 52 194.25V193.75ZM52 194.25H318.5V193.75H52V194.25Z" fill="white"/>
<path d="M52 172.75C51.8619 172.75 51.75 172.862 51.75 173C51.75 173.138 51.8619 173.25 52 173.25V172.75ZM52 173.25H318.5V172.75H52V173.25Z" fill="white"/>
<path d="M52 151.75C51.8619 151.75 51.75 151.862 51.75 152C51.75 152.138 51.8619 152.25 52 152.25V151.75ZM52 152.25H318.5V151.75H52V152.25Z" fill="white"/>
<path d="M52 130.75C51.8619 130.75 51.75 130.862 51.75 131C51.75 131.138 51.8619 131.25 52 131.25V130.75ZM52 131.25H318.5V130.75H52V131.25Z" fill="white"/>
<path d="M52 109.75C51.8619 109.75 51.75 109.862 51.75 110C51.75 110.138 51.8619 110.25 52 110.25V109.75ZM52 110.25H318.5V109.75H52V110.25Z" fill="white"/>
<path d="M52 88.75C51.8619 88.75 51.75 88.8619 51.75 89C51.75 89.1381 51.8619 89.25 52 89.25V88.75ZM52 89.25H318.5V88.75H52V89.25Z" fill="white"/>
<path d="M52 67.75C51.8619 67.75 51.75 67.8619 51.75 68C51.75 68.1381 51.8619 68.25 52 68.25V67.75ZM52 68.25H318.5V67.75H52V68.25Z" fill="white"/>
<path d="M52 46.75C51.8619 46.75 51.75 46.8619 51.75 47C51.75 47.1381 51.8619 47.25 52 47.25V46.75ZM52 47.25H318.5V46.75H52V47.25Z" fill="white"/>
<path d="M52 25.75C51.8619 25.75 51.75 25.8619 51.75 26C51.75 26.1381 51.8619 26.25 52 26.25V25.75ZM52 26.25H318.5V25.75H52V26.25Z" fill="white"/>
<rect x="59" y="26" width="250" height="168" rx="28" fill="#F0D75F"/>
<rect x="59" y="110" width="250" height="84" rx="28" fill="#B2802A"/>
<path d="M136.47 219.105C135.78 219.105 135.16 218.985 134.61 218.745C134.07 218.495 133.645 218.155 133.335 217.725C133.025 217.285 132.865 216.78 132.855 216.21H134.31C134.36 216.7 134.56 217.115 134.91 217.455C135.27 217.785 135.79 217.95 136.47 217.95C137.12 217.95 137.63 217.79 138 217.47C138.38 217.14 138.57 216.72 138.57 216.21C138.57 215.81 138.46 215.485 138.24 215.235C138.02 214.985 137.745 214.795 137.415 214.665C137.085 214.535 136.64 214.395 136.08 214.245C135.39 214.065 134.835 213.885 134.415 213.705C134.005 213.525 133.65 213.245 133.35 212.865C133.06 212.475 132.915 211.955 132.915 211.305C132.915 210.735 133.06 210.23 133.35 209.79C133.64 209.35 134.045 209.01 134.565 208.77C135.095 208.53 135.7 208.41 136.38 208.41C137.36 208.41 138.16 208.655 138.78 209.145C139.41 209.635 139.765 210.285 139.845 211.095H138.345C138.295 210.695 138.085 210.345 137.715 210.045C137.345 209.735 136.855 209.58 136.245 209.58C135.675 209.58 135.21 209.73 134.85 210.03C134.49 210.32 134.31 210.73 134.31 211.26C134.31 211.64 134.415 211.95 134.625 212.19C134.845 212.43 135.11 212.615 135.42 212.745C135.74 212.865 136.185 213.005 136.755 213.165C137.445 213.355 138 213.545 138.42 213.735C138.84 213.915 139.2 214.2 139.5 214.59C139.8 214.97 139.95 215.49 139.95 216.15C139.95 216.66 139.815 217.14 139.545 217.59C139.275 218.04 138.875 218.405 138.345 218.685C137.815 218.965 137.19 219.105 136.47 219.105ZM141.449 214.86C141.449 214.02 141.619 213.285 141.959 212.655C142.299 212.015 142.764 211.52 143.354 211.17C143.954 210.82 144.619 210.645 145.349 210.645C146.069 210.645 146.694 210.8 147.224 211.11C147.754 211.42 148.149 211.81 148.409 212.28V210.78H149.789V219H148.409V217.47C148.139 217.95 147.734 218.35 147.194 218.67C146.664 218.98 146.044 219.135 145.334 219.135C144.604 219.135 143.944 218.955 143.354 218.595C142.764 218.235 142.299 217.73 141.959 217.08C141.619 216.43 141.449 215.69 141.449 214.86ZM148.409 214.875C148.409 214.255 148.284 213.715 148.034 213.255C147.784 212.795 147.444 212.445 147.014 212.205C146.594 211.955 146.129 211.83 145.619 211.83C145.109 211.83 144.644 211.95 144.224 212.19C143.804 212.43 143.469 212.78 143.219 213.24C142.969 213.7 142.844 214.24 142.844 214.86C142.844 215.49 142.969 216.04 143.219 216.51C143.469 216.97 143.804 217.325 144.224 217.575C144.644 217.815 145.109 217.935 145.619 217.935C146.129 217.935 146.594 217.815 147.014 217.575C147.444 217.325 147.784 216.97 148.034 216.51C148.284 216.04 148.409 215.495 148.409 214.875ZM153.76 211.905V216.75C153.76 217.15 153.845 217.435 154.015 217.605C154.185 217.765 154.48 217.845 154.9 217.845H155.905V219H154.675C153.915 219 153.345 218.825 152.965 218.475C152.585 218.125 152.395 217.55 152.395 216.75V211.905H151.33V210.78H152.395V208.71H153.76V210.78H155.905V211.905H153.76ZM164.849 210.78V219H163.484V217.785C163.224 218.205 162.859 218.535 162.389 218.775C161.929 219.005 161.419 219.12 160.859 219.12C160.219 219.12 159.644 218.99 159.134 218.73C158.624 218.46 158.219 218.06 157.919 217.53C157.629 217 157.484 216.355 157.484 215.595V210.78H158.834V215.415C158.834 216.225 159.039 216.85 159.449 217.29C159.859 217.72 160.419 217.935 161.129 217.935C161.859 217.935 162.434 217.71 162.854 217.26C163.274 216.81 163.484 216.155 163.484 215.295V210.78H164.849ZM168.519 212.115C168.759 211.645 169.099 211.28 169.539 211.02C169.989 210.76 170.534 210.63 171.174 210.63V212.04H170.814C169.284 212.04 168.519 212.87 168.519 214.53V219H167.154V210.78H168.519V212.115ZM172.24 214.86C172.24 214.02 172.41 213.285 172.75 212.655C173.09 212.015 173.555 211.52 174.145 211.17C174.745 210.82 175.415 210.645 176.155 210.645C176.795 210.645 177.39 210.795 177.94 211.095C178.49 211.385 178.91 211.77 179.2 212.25V207.9H180.58V219H179.2V217.455C178.93 217.945 178.53 218.35 178 218.67C177.47 218.98 176.85 219.135 176.14 219.135C175.41 219.135 174.745 218.955 174.145 218.595C173.555 218.235 173.09 217.73 172.75 217.08C172.41 216.43 172.24 215.69 172.24 214.86ZM179.2 214.875C179.2 214.255 179.075 213.715 178.825 213.255C178.575 212.795 178.235 212.445 177.805 212.205C177.385 211.955 176.92 211.83 176.41 211.83C175.9 211.83 175.435 211.95 175.015 212.19C174.595 212.43 174.26 212.78 174.01 213.24C173.76 213.7 173.635 214.24 173.635 214.86C173.635 215.49 173.76 216.04 174.01 216.51C174.26 216.97 174.595 217.325 175.015 217.575C175.435 217.815 175.9 217.935 176.41 217.935C176.92 217.935 177.385 217.815 177.805 217.575C178.235 217.325 178.575 216.97 178.825 216.51C179.075 216.04 179.2 215.495 179.2 214.875ZM182.376 214.86C182.376 214.02 182.546 213.285 182.886 212.655C183.226 212.015 183.691 211.52 184.281 211.17C184.881 210.82 185.546 210.645 186.276 210.645C186.996 210.645 187.621 210.8 188.151 211.11C188.681 211.42 189.076 211.81 189.336 212.28V210.78H190.716V219H189.336V217.47C189.066 217.95 188.661 218.35 188.121 218.67C187.591 218.98 186.971 219.135 186.261 219.135C185.531 219.135 184.871 218.955 184.281 218.595C183.691 218.235 183.226 217.73 182.886 217.08C182.546 216.43 182.376 215.69 182.376 214.86ZM189.336 214.875C189.336 214.255 189.211 213.715 188.961 213.255C188.711 212.795 188.371 212.445 187.941 212.205C187.521 211.955 187.056 211.83 186.546 211.83C186.036 211.83 185.571 211.95 185.151 212.19C184.731 212.43 184.396 212.78 184.146 213.24C183.896 213.7 183.771 214.24 183.771 214.86C183.771 215.49 183.896 216.04 184.146 216.51C184.396 216.97 184.731 217.325 185.151 217.575C185.571 217.815 186.036 217.935 186.546 217.935C187.056 217.935 187.521 217.815 187.941 217.575C188.371 217.325 188.711 216.97 188.961 216.51C189.211 216.04 189.336 215.495 189.336 214.875ZM200.103 210.78L195.153 222.87H193.743L195.363 218.91L192.048 210.78H193.563L196.143 217.44L198.693 210.78H200.103Z" fill="white"/>
<path d="M138.89 230.45H135.85L135.29 232H134.33L136.85 225.07H137.9L140.41 232H139.45L138.89 230.45ZM138.63 229.71L137.37 226.19L136.11 229.71H138.63ZM142.418 227.53C142.598 227.217 142.865 226.957 143.218 226.75C143.578 226.537 143.995 226.43 144.468 226.43C144.955 226.43 145.395 226.547 145.788 226.78C146.188 227.013 146.502 227.343 146.728 227.77C146.955 228.19 147.068 228.68 147.068 229.24C147.068 229.793 146.955 230.287 146.728 230.72C146.502 231.153 146.188 231.49 145.788 231.73C145.395 231.97 144.955 232.09 144.468 232.09C144.002 232.09 143.588 231.987 143.228 231.78C142.875 231.567 142.605 231.303 142.418 230.99V234.6H141.508V226.52H142.418V227.53ZM146.138 229.24C146.138 228.827 146.055 228.467 145.888 228.16C145.722 227.853 145.495 227.62 145.208 227.46C144.928 227.3 144.618 227.22 144.278 227.22C143.945 227.22 143.635 227.303 143.348 227.47C143.068 227.63 142.842 227.867 142.668 228.18C142.502 228.487 142.418 228.843 142.418 229.25C142.418 229.663 142.502 230.027 142.668 230.34C142.842 230.647 143.068 230.883 143.348 231.05C143.635 231.21 143.945 231.29 144.278 231.29C144.618 231.29 144.928 231.21 145.208 231.05C145.495 230.883 145.722 230.647 145.888 230.34C146.055 230.027 146.138 229.66 146.138 229.24ZM149.176 227.41C149.336 227.097 149.563 226.853 149.856 226.68C150.156 226.507 150.519 226.42 150.946 226.42V227.36H150.706C149.686 227.36 149.176 227.913 149.176 229.02V232H148.266V226.52H149.176V227.41ZM152.467 225.63C152.293 225.63 152.147 225.57 152.027 225.45C151.907 225.33 151.847 225.183 151.847 225.01C151.847 224.837 151.907 224.69 152.027 224.57C152.147 224.45 152.293 224.39 152.467 224.39C152.633 224.39 152.773 224.45 152.887 224.57C153.007 224.69 153.067 224.837 153.067 225.01C153.067 225.183 153.007 225.33 152.887 225.45C152.773 225.57 152.633 225.63 152.467 225.63ZM152.907 226.52V232H151.997V226.52H152.907ZM155.368 224.6V232H154.458V224.6H155.368ZM159.434 228.31C159.434 227.163 159.621 226.27 159.994 225.63C160.368 224.983 161.021 224.66 161.954 224.66C162.881 224.66 163.531 224.983 163.904 225.63C164.278 226.27 164.464 227.163 164.464 228.31C164.464 229.477 164.278 230.383 163.904 231.03C163.531 231.677 162.881 232 161.954 232C161.021 232 160.368 231.677 159.994 231.03C159.621 230.383 159.434 229.477 159.434 228.31ZM163.564 228.31C163.564 227.73 163.524 227.24 163.444 226.84C163.371 226.433 163.214 226.107 162.974 225.86C162.741 225.613 162.401 225.49 161.954 225.49C161.501 225.49 161.154 225.613 160.914 225.86C160.681 226.107 160.524 226.433 160.444 226.84C160.371 227.24 160.334 227.73 160.334 228.31C160.334 228.91 160.371 229.413 160.444 229.82C160.524 230.227 160.681 230.553 160.914 230.8C161.154 231.047 161.501 231.17 161.954 231.17C162.401 231.17 162.741 231.047 162.974 230.8C163.214 230.553 163.371 230.227 163.444 229.82C163.524 229.413 163.564 228.91 163.564 228.31ZM165.474 225.6V224.77H167.354V232H166.434V225.6H165.474ZM170.007 230.74L168.887 233.43H168.277L169.007 230.74H170.007ZM173.455 231.27C174.302 230.59 174.965 230.033 175.445 229.6C175.925 229.16 176.329 228.703 176.655 228.23C176.989 227.75 177.155 227.28 177.155 226.82C177.155 226.387 177.049 226.047 176.835 225.8C176.629 225.547 176.292 225.42 175.825 225.42C175.372 225.42 175.019 225.563 174.765 225.85C174.519 226.13 174.385 226.507 174.365 226.98H173.485C173.512 226.233 173.739 225.657 174.165 225.25C174.592 224.843 175.142 224.64 175.815 224.64C176.502 224.64 177.045 224.83 177.445 225.21C177.852 225.59 178.055 226.113 178.055 226.78C178.055 227.333 177.889 227.873 177.555 228.4C177.229 228.92 176.855 229.38 176.435 229.78C176.015 230.173 175.479 230.633 174.825 231.16H178.265V231.92H173.455V231.27ZM179.317 228.31C179.317 227.163 179.504 226.27 179.877 225.63C180.251 224.983 180.904 224.66 181.837 224.66C182.764 224.66 183.414 224.983 183.787 225.63C184.161 226.27 184.347 227.163 184.347 228.31C184.347 229.477 184.161 230.383 183.787 231.03C183.414 231.677 182.764 232 181.837 232C180.904 232 180.251 231.677 179.877 231.03C179.504 230.383 179.317 229.477 179.317 228.31ZM183.447 228.31C183.447 227.73 183.407 227.24 183.327 226.84C183.254 226.433 183.097 226.107 182.857 225.86C182.624 225.613 182.284 225.49 181.837 225.49C181.384 225.49 181.037 225.613 180.797 225.86C180.564 226.107 180.407 226.433 180.327 226.84C180.254 227.24 180.217 227.73 180.217 228.31C180.217 228.91 180.254 229.413 180.327 229.82C180.407 230.227 180.564 230.553 180.797 230.8C181.037 231.047 181.384 231.17 181.837 231.17C182.284 231.17 182.624 231.047 182.857 230.8C183.097 230.553 183.254 230.227 183.327 229.82C183.407 229.413 183.447 228.91 183.447 228.31ZM185.487 231.27C186.333 230.59 186.997 230.033 187.477 229.6C187.957 229.16 188.36 228.703 188.687 228.23C189.02 227.75 189.187 227.28 189.187 226.82C189.187 226.387 189.08 226.047 188.867 225.8C188.66 225.547 188.323 225.42 187.857 225.42C187.403 225.42 187.05 225.563 186.797 225.85C186.55 226.13 186.417 226.507 186.397 226.98H185.517C185.543 226.233 185.77 225.657 186.197 225.25C186.623 224.843 187.173 224.64 187.847 224.64C188.533 224.64 189.077 224.83 189.477 225.21C189.883 225.59 190.087 226.113 190.087 226.78C190.087 227.333 189.92 227.873 189.587 228.4C189.26 228.92 188.887 229.38 188.467 229.78C188.047 230.173 187.51 230.633 186.857 231.16H190.297V231.92H185.487V231.27ZM191.329 226.59C191.375 225.977 191.612 225.497 192.039 225.15C192.465 224.803 193.019 224.63 193.699 224.63C194.152 224.63 194.542 224.713 194.869 224.88C195.202 225.04 195.452 225.26 195.619 225.54C195.792 225.82 195.879 226.137 195.879 226.49C195.879 226.903 195.759 227.26 195.519 227.56C195.285 227.86 194.979 228.053 194.599 228.14V228.19C195.032 228.297 195.375 228.507 195.629 228.82C195.882 229.133 196.009 229.543 196.009 230.05C196.009 230.43 195.922 230.773 195.749 231.08C195.575 231.38 195.315 231.617 194.969 231.79C194.622 231.963 194.205 232.05 193.719 232.05C193.012 232.05 192.432 231.867 191.979 231.5C191.525 231.127 191.272 230.6 191.219 229.92H192.099C192.145 230.32 192.309 230.647 192.589 230.9C192.869 231.153 193.242 231.28 193.709 231.28C194.175 231.28 194.529 231.16 194.769 230.92C195.015 230.673 195.139 230.357 195.139 229.97C195.139 229.47 194.972 229.11 194.639 228.89C194.305 228.67 193.802 228.56 193.129 228.56H192.899V227.8H193.139C193.752 227.793 194.215 227.693 194.529 227.5C194.842 227.3 194.999 226.993 194.999 226.58C194.999 226.227 194.882 225.943 194.649 225.73C194.422 225.517 194.095 225.41 193.669 225.41C193.255 225.41 192.922 225.517 192.669 225.73C192.415 225.943 192.265 226.23 192.219 226.59H191.329Z" fill="white"/>
</svg>
