<svg width="19" height="22" viewBox="0 0 19 22" fill="none" xmlns="http://www.w3.org/2000/svg">
<path d="M7.10491 4.43711C7.11787 4.10393 7.16785 3.77568 7.26163 3.45607C7.31655 3.2685 7.42514 3.1124 7.58371 2.99394C7.60777 2.989 7.63492 2.989 7.65652 2.97851C8.08102 2.76379 8.61781 2.95136 8.89916 3.3154C9.1546 3.64549 9.3903 3.98917 9.63402 4.32667C9.95178 4.76659 10.2782 5.19973 10.5972 5.63842C11.0167 6.21532 11.4307 6.79654 11.8497 7.37406C12.4284 8.17123 13.0103 8.96531 13.5896 9.76187C13.7396 9.96795 13.879 10.1814 14.0333 10.3832C14.1776 10.572 14.3874 10.6467 14.6435 10.6689C14.5793 10.7028 14.5398 10.725 14.4997 10.7448C13.8661 11.0594 13.3206 11.4827 12.8751 12.0361C12.1107 12.9845 11.8522 14.0636 12.0348 15.2551C12.1292 15.8727 12.3599 16.4465 12.6598 16.9926C12.7098 17.0839 12.7406 17.198 12.8647 17.2751C12.7801 17.0265 12.7005 16.8081 12.632 16.5866C12.4938 16.1399 12.3859 15.687 12.3482 15.2174C12.3192 14.8534 12.3131 14.4906 12.3624 14.1296C12.4328 13.6163 12.5993 13.1338 12.8529 12.6797C13.0936 12.249 13.3996 11.8683 13.7488 11.5253C14.1462 11.1353 14.5947 10.8071 15.068 10.514C15.2827 10.4887 15.4098 10.3554 15.4962 10.1697C15.6122 9.91859 15.6554 9.64895 15.6689 9.37809C15.693 8.89744 15.7016 8.41618 15.7473 7.93676C15.7899 7.49129 15.8331 7.04272 15.9824 6.61822C16.1983 6.00369 16.5389 5.4743 17.1312 5.15099C17.4478 4.97822 17.7871 4.93565 18.1407 5.01031C18.1573 5.01648 18.174 5.02327 18.19 5.02944L18.1882 5.02759C18.5806 5.27871 18.7034 5.66125 18.717 6.09994C18.7268 6.42449 18.6731 6.74039 18.5966 7.0526C18.5362 7.2994 18.4449 7.53941 18.3912 7.78807C18.2567 8.41124 18.1635 9.0412 18.0802 9.67302C18.0173 10.1481 17.9691 10.6244 17.9408 11.102C17.9031 11.7332 17.958 12.3619 18.0407 12.9876C18.1024 13.4503 18.1308 13.9162 18.1678 14.3808C18.1802 14.5381 18.1869 14.6967 18.2024 14.854C18.2264 15.1027 18.2499 15.3563 18.2283 15.6037C18.1968 15.9677 18.1308 16.3287 18.0426 16.6859C17.9025 17.2511 17.6866 17.7811 17.3762 18.2722C17.1454 18.6369 16.8678 18.9639 16.5753 19.281C16.1922 19.6969 15.8028 20.1053 15.3364 20.428C14.6095 20.9315 13.8204 21.3079 12.9695 21.5553C12.3211 21.7435 11.6621 21.8533 10.9859 21.8465C10.8359 21.8453 10.686 21.8311 10.5361 21.8231C10.1819 21.7614 9.85552 21.6207 9.5427 21.451C8.5049 20.8865 7.69909 20.0776 7.04938 19.0965C5.98875 17.4948 4.8874 15.9208 3.81072 14.3296C3.05736 13.2171 2.26883 12.1299 1.47104 11.0489C1.26558 10.7707 1.08418 10.4764 1.05579 10.1216C1.02186 9.70325 1.11688 9.32441 1.44512 9.03195C1.46302 9.04923 1.48153 9.04491 1.50251 9.03627C1.71476 8.94433 1.93811 8.95668 2.15591 8.99493C2.68284 9.08686 3.04749 9.41758 3.35722 9.83097C3.78974 10.4085 4.22226 10.9872 4.66959 11.5537C5.10767 12.1083 5.50749 12.6889 5.8925 13.2794C6.09179 13.5848 6.34723 13.7175 6.70263 13.6786C6.73594 13.6749 6.7779 13.6799 6.78777 13.6416C6.79888 13.5978 6.7489 13.5959 6.72484 13.5768C6.61748 13.491 6.48729 13.4306 6.40831 13.314C6.25838 13.0931 6.09796 12.8796 5.94186 12.6636C5.31807 11.8017 4.67761 10.9515 4.05259 10.0901C3.78419 9.72053 3.48926 9.37685 3.1567 9.06465C3.1567 9.04552 3.15485 9.02825 3.12955 9.02763L3.1314 9.02886C3.09006 8.90361 2.99442 8.81291 2.92347 8.7074C2.75379 8.45443 2.57548 8.20578 2.43727 7.93368C2.15159 7.37344 2.13 6.81443 2.47861 6.26962C2.55265 6.15424 2.63841 6.04564 2.75009 5.96173C2.7723 5.96111 2.79266 5.95741 2.80377 5.93458L2.80007 5.93335C3.40597 5.75874 3.91685 5.94507 4.36418 6.35415C4.60604 6.57503 4.77387 6.85947 4.97624 7.11368C5.20022 7.39442 5.40877 7.68688 5.63089 7.96885C6.15781 8.6383 6.6619 9.32441 7.14749 10.0247C7.59235 10.6664 8.03721 11.3081 8.48083 11.951C8.54439 12.0429 8.62768 12.104 8.7264 12.1565C8.88065 12.2385 9.04354 12.2194 9.2052 12.2206C9.2379 12.2206 9.28232 12.2293 9.29405 12.1923C9.30824 12.1478 9.25703 12.146 9.23173 12.1293C9.12252 12.059 9.00467 11.9954 8.92816 11.8899C8.62645 11.4741 8.32905 11.0551 8.03289 10.6355C7.77313 10.2672 7.52263 9.89144 7.25731 9.5274C6.69646 8.75862 6.12758 7.99538 5.5624 7.22968C5.30449 6.88045 5.06201 6.51889 4.76214 6.20298C4.66527 6.10117 4.58753 5.97777 4.46043 5.9062C4.45364 5.88152 4.45302 5.84944 4.4123 5.86054H4.41415C4.39873 5.75812 4.31667 5.69148 4.26916 5.60572C4.05999 5.22873 3.91685 4.83878 4.03593 4.40071C4.14267 4.00768 4.39935 3.73558 4.75227 3.54677C4.90837 3.53382 5.05707 3.49124 5.22181 3.51469C5.63767 3.57269 5.97579 3.76889 6.24542 4.07123C6.50333 4.35999 6.73409 4.67404 6.963 4.98748C7.44735 5.65199 7.98106 6.27887 8.44196 6.96066C8.68506 7.32038 8.92878 7.67947 9.17188 8.03919C9.43349 8.42667 9.69325 8.816 9.95609 9.20286C10.2374 9.6181 10.5373 10.021 10.7971 10.4492C11.005 10.7923 11.295 10.8262 11.5998 10.8108C11.6288 10.8095 11.6627 10.8046 11.6664 10.7676C11.6695 10.7361 11.6374 10.7299 11.6165 10.7195C11.5042 10.6608 11.395 10.5917 11.3221 10.4893C11.0439 10.0981 10.7705 9.70263 10.4991 9.30652C10.2251 8.90731 9.95609 8.50503 9.68461 8.10459C9.46187 7.77634 9.23235 7.45303 9.01763 7.11985C8.6826 6.60033 8.3309 6.09192 7.97181 5.58968C7.69292 5.19973 7.39614 4.82212 7.10676 4.43896L7.10491 4.43711Z" fill="#FFD056"/>
<path d="M15.068 10.5127C14.5948 10.8064 14.1462 11.1347 13.7489 11.524C13.3996 11.8665 13.0936 12.2471 12.853 12.6784C12.5994 13.1326 12.4328 13.6151 12.3624 14.1284C12.3131 14.4893 12.3193 14.8521 12.3483 15.2162C12.3853 15.6851 12.4933 16.138 12.6321 16.5853C12.7006 16.8074 12.7808 17.0259 12.8647 17.2739C12.7407 17.1968 12.7098 17.0826 12.6598 16.9913C12.3606 16.4459 12.1298 15.8714 12.0348 15.2538C11.8522 14.063 12.1107 12.9832 12.8752 12.0349C13.3213 11.4821 13.8661 11.0582 14.4998 10.7435C14.5399 10.7238 14.5793 10.7016 14.6435 10.6676C14.3875 10.6454 14.1777 10.5707 14.0333 10.3819C13.879 10.1796 13.7396 9.96608 13.5897 9.76062C13.0103 8.96407 12.4285 8.16936 11.8497 7.37281C11.4308 6.79529 11.0168 6.21469 10.5972 5.63717C10.2782 5.19848 9.95181 4.76534 9.63405 4.32542C9.38972 3.9873 9.15402 3.64363 8.8992 3.31415C8.61784 2.95011 8.08105 2.76254 7.65655 2.97726C7.63495 2.98837 7.60842 2.98775 7.58374 2.99269C7.91631 2.67493 8.28959 2.50464 8.75667 2.66321C8.86958 2.70146 8.96521 2.75884 9.04728 2.84954C10.0104 3.90832 10.8267 5.07817 11.6153 6.26775C12.3964 7.44623 13.1646 8.63335 14.0314 9.75198C14.2184 9.99323 14.3992 10.2406 14.6768 10.3924C14.8002 10.4603 14.928 10.5047 15.0686 10.5121L15.068 10.5127Z" fill="#D8A229"/>
<path d="M10.5354 21.8224C10.6853 21.8304 10.8353 21.8446 10.9852 21.8458C11.6614 21.852 12.3204 21.7428 12.9689 21.5546C13.8197 21.3078 14.6089 20.9308 15.3357 20.4273C15.8022 20.1046 16.1921 19.6955 16.5746 19.2803C16.8671 18.9632 17.1448 18.6355 17.3755 18.2715C17.6859 17.781 17.9018 17.2503 18.0419 16.6852C18.1301 16.3279 18.1968 15.9676 18.2276 15.6029C18.2492 15.3555 18.2258 15.1019 18.2017 14.8533C18.1863 14.6959 18.1795 14.5374 18.1671 14.38C18.1301 13.9148 18.1011 13.4496 18.04 12.9868C17.9567 12.3612 17.9024 11.7325 17.9401 11.1013C17.9685 10.6237 18.0166 10.1474 18.0795 9.67229C18.1634 9.04047 18.256 8.41051 18.3905 7.78734C18.4442 7.5393 18.5355 7.29929 18.596 7.05187C18.6725 6.73966 18.7261 6.42376 18.7163 6.09921C18.7027 5.6599 18.5799 5.27736 18.1875 5.02686C18.5219 5.06943 18.7428 5.26193 18.8761 5.56118C19.0192 5.88202 19.0143 6.22323 18.9797 6.56196C18.939 6.9587 18.8286 7.34001 18.7083 7.72008C18.5984 8.06684 18.5608 8.43211 18.5009 8.7912C18.3541 9.67969 18.2467 10.5725 18.2128 11.4733C18.1937 11.9824 18.2603 12.4846 18.3183 12.9875C18.3997 13.6945 18.4497 14.4041 18.4935 15.1143C18.5577 16.1595 18.3078 17.1319 17.8315 18.0512C17.518 18.6565 17.059 19.152 16.5919 19.6406C15.3351 20.9567 13.7722 21.6471 11.9921 21.8871C11.5306 21.9495 11.0648 21.9544 10.6057 21.8477C10.5817 21.8421 10.5588 21.8316 10.536 21.823L10.5354 21.8224Z" fill="#D8A229"/>
<path d="M7.10474 4.43704C7.39349 4.82021 7.69027 5.19781 7.96978 5.58776C8.32949 6.09 8.68057 6.59841 9.0156 7.11793C9.23032 7.45112 9.45985 7.77443 9.68258 8.10267C9.95407 8.50311 10.2237 8.9054 10.497 9.3046C10.7685 9.70072 11.0418 10.0962 11.3201 10.4874C11.3929 10.5898 11.5021 10.6589 11.6144 10.7175C11.6354 10.7286 11.6675 10.7348 11.6644 10.7657C11.6607 10.8033 11.6274 10.8076 11.5978 10.8089C11.293 10.8243 11.003 10.7903 10.795 10.4473C10.5359 10.0191 10.2354 9.61619 9.95407 9.20094C9.69184 8.81346 9.43208 8.42475 9.16985 8.03727C8.92675 7.67756 8.68304 7.31846 8.43994 6.95875C7.97903 6.27695 7.44532 5.65008 6.96097 4.98556C6.73268 4.67212 6.5013 4.35807 6.2434 4.06931C5.97377 3.76759 5.63565 3.57077 5.21979 3.51277C5.05504 3.48994 4.90635 3.5319 4.75024 3.54486C5.26976 3.17589 5.99474 3.24499 6.42048 3.70466C6.61607 3.91629 6.80981 4.12978 7.0054 4.34141C7.03625 4.37473 7.0708 4.40434 7.10412 4.43581L7.10474 4.43704Z" fill="#D8A229"/>
<path d="M4.45797 5.90432C4.58507 5.97589 4.66281 6.09929 4.75968 6.2011C5.05893 6.517 5.30141 6.87857 5.55994 7.22779C6.12573 7.9935 6.69399 8.75673 7.25485 9.52552C7.52078 9.88955 7.77067 10.2653 8.03043 10.6337C8.32659 11.0532 8.62399 11.4722 8.9257 11.888C9.00221 11.9942 9.12006 12.0571 9.22927 12.1274C9.25457 12.1435 9.3064 12.1453 9.29159 12.1904C9.27986 12.2274 9.23482 12.2194 9.20274 12.2188C9.04047 12.2175 8.87819 12.236 8.72394 12.1546C8.62522 12.1021 8.54193 12.0411 8.47837 11.9491C8.03475 11.3068 7.58989 10.6651 7.14503 10.0228C6.66006 9.32253 6.15597 8.63642 5.62843 7.96697C5.4063 7.685 5.19776 7.39253 4.97379 7.1118C4.77079 6.85759 4.60358 6.57315 4.36172 6.35226C3.915 5.94381 3.40351 5.75685 2.79761 5.93147C2.93952 5.755 3.14005 5.69207 3.34983 5.6569C3.69165 5.59952 4.00755 5.70009 4.31791 5.82843C4.34814 5.84077 4.37961 5.8494 4.41046 5.85989L4.40861 5.85928C4.41231 5.88766 4.44069 5.88951 4.45673 5.90494L4.45797 5.90432Z" fill="#D8A229"/>
<path d="M10.3188 1.39344C12.4123 1.40578 14.7545 3.37032 14.4824 6.30665C14.4361 6.3085 14.446 6.26963 14.4386 6.24495C14.2368 5.58414 14.0098 4.9332 13.6784 4.32298C13.1256 3.30739 12.3315 2.52811 11.3462 1.93455C11.0142 1.73464 10.6693 1.5588 10.3188 1.39282V1.39344Z" fill="#1F1F1F"/>
<path d="M5.38026 18.941C3.20408 18.8552 0.991499 16.7944 1.32715 13.9247C1.37281 13.9216 1.36355 13.9605 1.37034 13.9846C1.55297 14.6466 1.76399 15.2976 2.07681 15.9121C2.63829 17.0147 3.48173 17.847 4.53434 18.4795C4.80953 18.6448 5.09335 18.7935 5.37964 18.941H5.38026Z" fill="#1F1F1F"/>
<path d="M3.15469 9.06276C3.48725 9.37497 3.78218 9.71864 4.05058 10.0882C4.67561 10.9496 5.31606 11.7998 5.93985 12.6618C6.09595 12.8777 6.25637 13.0912 6.4063 13.3121C6.48528 13.4287 6.61547 13.4892 6.72283 13.5749C6.74689 13.594 6.79687 13.5959 6.78576 13.6397C6.77589 13.678 6.73393 13.673 6.70062 13.6767C6.34584 13.7156 6.08978 13.5829 5.89049 13.2775C5.50548 12.687 5.10566 12.1064 4.66758 11.5518C4.22026 10.9853 3.78773 10.4072 3.35521 9.82908C3.04609 9.41569 2.68083 9.08559 2.15391 8.99304C1.9361 8.95479 1.71336 8.94244 1.5005 9.03438C1.47952 9.04363 1.46163 9.04734 1.44312 9.03006C1.80406 8.69996 2.22178 8.69071 2.66355 8.81534C2.82953 8.86223 2.96959 8.96404 3.12816 9.02574L3.12631 9.02451C3.13556 9.03685 3.1442 9.04919 3.15345 9.06153L3.15469 9.06276Z" fill="#D8A229"/>
<path d="M15.7552 4.21742C15.5948 3.46283 15.3856 2.76561 14.9543 2.15663C14.5249 1.54949 13.9566 1.10463 13.3044 0.741832C13.3908 0.717152 13.4655 0.727024 13.5414 0.744917C14.7797 1.03306 15.7071 2.11467 15.8033 3.382C15.8138 3.52021 15.8243 3.6578 15.8132 3.79601C15.8027 3.92373 15.7965 4.05268 15.7552 4.21804V4.21742Z" fill="#1F1F1F"/>
<path d="M0.00184638 16.5847C0.497919 18.0834 1.4697 19.1114 3.00419 19.6179C1.71897 19.75 -0.0654072 18.6017 0.00184638 16.5847Z" fill="#1F1F1F"/>
<path d="M18.1893 5.02818C18.1726 5.02201 18.1559 5.01522 18.1399 5.00905C18.159 5.00781 18.1794 5.00535 18.1893 5.02818Z" fill="#D8A229"/>
<path d="M2.80197 5.93198C2.79086 5.95481 2.7705 5.95851 2.74829 5.95913C2.76125 5.94062 2.77544 5.92334 2.80197 5.93198Z" fill="#D8A229"/>
<path d="M4.45779 5.9044C4.44175 5.88897 4.41275 5.88712 4.40967 5.85874C4.45039 5.84763 4.45101 5.8791 4.45779 5.9044Z" fill="#F1F1F1"/>
<path d="M3.15483 9.06265C3.14558 9.05031 3.13694 9.03797 3.12769 9.02563C3.15298 9.02563 3.15483 9.04353 3.15483 9.06265Z" fill="#F1F1F1"/>
</svg>
