<svg width="29" height="29" viewBox="0 0 29 29" fill="none" xmlns="http://www.w3.org/2000/svg">
<path d="M23.5716 5.67101C24.8068 6.59097 25.6974 7.25506 26.3638 7.8401C27.0218 8.41783 27.4188 8.88314 27.686 9.38532C28.2299 10.4073 28.25 11.5729 28.25 14.4292V16.5917C28.25 19.541 28.2478 21.665 27.9937 23.2829C27.745 24.8657 27.2694 25.8595 26.3889 26.613C25.4915 27.3809 24.2797 27.808 22.3695 28.0278C20.4481 28.2488 17.9359 28.25 14.5 28.25C11.0641 28.25 8.55187 28.2488 6.6305 28.0278C4.72027 27.808 3.5085 27.3809 2.61111 26.613C1.73058 25.8595 1.25502 24.8657 1.00635 23.2829C0.75216 21.665 0.75 19.541 0.75 16.5917L0.75 14.4292C0.75 11.5729 0.770137 10.4073 1.31395 9.38532C1.58117 8.88314 1.97819 8.41783 2.63622 7.8401C3.30258 7.25506 4.19325 6.59097 5.4284 5.67101C7.71167 3.97039 9.37189 2.73539 10.7974 1.91801C12.2035 1.11177 13.3188 0.75 14.5 0.75C15.6812 0.75 16.7965 1.11177 18.2026 1.91801C19.6281 2.73539 21.2883 3.97039 23.5716 5.67101Z" stroke="black" stroke-width="1.5"/>
<rect x="19.5503" y="21" width="10.1" height="10.1" rx="5.05" transform="rotate(-180 19.5503 21)" stroke="black" stroke-width="1.5"/>
</svg>
