<svg width="32" height="32" viewBox="0 0 32 32" fill="none" xmlns="http://www.w3.org/2000/svg">
<path d="M15.9992 4.36218C14.394 4.36218 13.0886 5.66759 13.0886 7.27272C13.0886 8.87786 14.394 10.1832 15.9992 10.1832C17.6043 10.1832 18.9096 8.87779 18.9096 7.27272C18.9096 5.66766 17.6042 4.36218 15.9992 4.36218ZM15.9992 8.72868C15.1966 8.72868 14.5432 8.07529 14.5432 7.27272C14.5432 6.47016 15.1966 5.81677 15.9992 5.81677C16.8017 5.81677 17.4551 6.47016 17.4551 7.27272C17.4551 8.07529 16.8017 8.72868 15.9992 8.72868Z" fill="#1D1D1D"/>
<path d="M31.2727 13.0909C31.6747 13.0909 32 12.7676 32 12.3656V9.45686C32 9.2005 31.8651 8.96261 31.6442 8.83191L17.4176 0.383235C17.4112 0.378939 17.4048 0.375394 17.3984 0.371848C16.5142 -0.118174 15.517 -0.133037 14.5816 0.381803L0.355841 8.83191C0.134932 8.96255 0 9.2005 0 9.45686V12.3656C0 12.7676 0.325295 13.0909 0.727295 13.0909H2.90911V26.1824C1.30466 26.1824 0 27.4869 0 29.0912V31.2728C0 31.6747 0.325295 32 0.727295 32H31.2727C31.6747 32 32 31.6748 32 31.2728V29.0912C32 27.4869 30.6954 26.1824 29.0909 26.1824V13.0909H31.2727ZM30.5454 29.0909V30.5454H1.45452V29.0909C1.45452 28.2891 2.10723 27.6364 2.90904 27.6364H3.63634H28.3636H29.0909C29.8927 27.6363 30.5454 28.289 30.5454 29.0909ZM4.36363 26.1818V13.0909H7.27274V26.1818H4.36363ZM8.72726 26.1818V13.0909H13.0909V26.1818H8.72726ZM14.5454 26.1818V13.0909H17.4545V26.1818H14.5454ZM18.909 26.1818V13.0909H23.2727V26.1818H18.909ZM24.7273 26.1818V13.0909H27.6364V26.1818H24.7273ZM1.45452 11.6364V9.86861L15.3033 1.64132C15.7564 1.39205 16.2379 1.39273 16.6854 1.63635L30.5454 9.86861V11.6364H1.45452Z" fill="#1D1D1D"/>
</svg>
