<svg width="36" height="34" viewBox="0 0 36 34" fill="none" xmlns="http://www.w3.org/2000/svg">
<path d="M30.2131 8.68628H5.15837C2.31386 8.68628 0 11.0001 0 13.8446V28.5827C0 31.4271 2.31386 33.7411 5.15837 33.7411H30.2132C33.0577 33.7411 35.3716 31.4272 35.3716 28.5827V13.8446C35.3715 11.0001 33.0577 8.68628 30.2131 8.68628ZM33.8977 28.5828C33.8977 30.6136 32.2456 32.2673 30.2132 32.2673H5.15837C3.12596 32.2673 1.47386 30.6136 1.47386 28.5828V13.8446C1.47386 11.8137 3.12603 10.1601 5.15837 10.1601H30.2132C32.2456 10.1601 33.8977 11.8137 33.8977 13.8446V28.5828Z" fill="black"/>
<path d="M30.1354 9.09303L27.0153 2.85285C26.386 1.5942 25.2998 0.667213 23.9586 0.242755C22.6175 -0.180253 21.1967 -0.0476096 19.9558 0.618577L4.80936 8.77468C4.45122 8.96625 4.31713 9.41434 4.51015 9.77248C4.70324 10.1306 5.15126 10.2647 5.50794 10.0717L20.6572 1.91848C21.5415 1.44096 22.5599 1.34514 23.5149 1.64877C24.4729 1.95088 25.2482 2.6141 25.6977 3.51317L28.8178 9.75327C28.9474 10.0112 29.2069 10.16 29.4766 10.16C29.5871 10.16 29.6991 10.135 29.8052 10.0819C30.1692 9.89918 30.3166 9.45703 30.1354 9.09303Z" fill="black"/>
<path d="M27.1787 3.18006C26.9841 2.82047 26.5361 2.68783 26.1794 2.8794L15.2305 8.77463C14.8724 8.96772 14.7383 9.41429 14.9313 9.77242C15.0639 10.02 15.3174 10.1601 15.5798 10.1601C15.6977 10.1601 15.8186 10.1321 15.9305 10.0731L26.8795 4.17785C27.2376 3.98476 27.3718 3.53819 27.1787 3.18006Z" fill="black"/>
<path d="M13.2643 4.26483H8.10595C3.63739 4.26483 0 7.90071 0 12.3708V13.8446C0 14.2513 0.330157 14.5815 0.73693 14.5815C1.1437 14.5815 1.47386 14.2513 1.47386 13.8446V12.3708C1.47386 8.71425 4.44949 5.73862 8.10602 5.73862H13.2643C13.6711 5.73862 14.0012 5.40846 14.0012 5.00169C14.0012 4.59492 13.6711 4.26483 13.2643 4.26483Z" fill="black"/>
<path d="M27.2655 4.26483C26.8587 4.26483 26.5286 4.59499 26.5286 5.00176C26.5286 5.40853 26.8587 5.73869 27.2655 5.73869C30.922 5.73869 33.8977 8.71432 33.8977 12.3709V13.8446C33.8977 14.2514 34.2278 14.5816 34.6346 14.5816C35.0414 14.5816 35.3715 14.2514 35.3715 13.8446V12.3709C35.3714 7.90071 31.734 4.26483 27.2655 4.26483Z" fill="black"/>
<path fill-rule="evenodd" clip-rule="evenodd" d="M13 22C13 21.4477 13.3582 21 13.8 21H20.2C20.6418 21 21 21.4477 21 22C21 22.5523 20.6418 23 20.2 23H13.8C13.3582 23 13 22.5523 13 22Z" fill="black"/>
<path fill-rule="evenodd" clip-rule="evenodd" d="M17 18C17.5523 18 18 18.3582 18 18.8L18 25.2C18 25.6418 17.5523 26 17 26C16.4477 26 16 25.6418 16 25.2L16 18.8C16 18.3582 16.4477 18 17 18Z" fill="black"/>
</svg>
