<svg width="21" height="36" viewBox="0 0 21 36" fill="none" xmlns="http://www.w3.org/2000/svg">
<path d="M17.3409 0.338013H3.65399C2.68523 0.339104 1.75646 0.724428 1.07144 1.40945C0.386415 2.09447 0.00109112 3.02324 0 3.99201V31.7249C0.00109112 32.6937 0.386415 33.6224 1.07144 34.3074C1.75646 34.9925 2.68523 35.3778 3.65399 35.3789H17.3409C18.3097 35.3778 19.2385 34.9925 19.9235 34.3074C20.6085 33.6224 20.9938 32.6937 20.9949 31.7249V3.99201C20.9938 3.02324 20.6085 2.09447 19.9235 1.40945C19.2385 0.724428 18.3097 0.339104 17.3409 0.338013ZM14.6111 1.6497V2.49743C14.6108 2.66866 14.5426 2.83279 14.4215 2.95383C14.3004 3.07487 14.1362 3.14296 13.965 3.14316H7.03178C6.86059 3.14296 6.69646 3.07486 6.57541 2.95381C6.45435 2.83275 6.38626 2.66863 6.38606 2.49743V1.6497H14.6111ZM19.6828 31.7249C19.6822 32.3459 19.4352 32.9413 18.996 33.3804C18.5569 33.8195 17.9615 34.0665 17.3405 34.0672H3.65399C3.03299 34.0665 2.43762 33.8195 1.9985 33.3804C1.55939 32.9413 1.31238 32.3459 1.31169 31.7249V3.99201C1.31238 3.371 1.55939 2.77563 1.9985 2.33651C2.43762 1.8974 3.03299 1.6504 3.65399 1.6497H5.07287V2.49743C5.07346 3.01639 5.27988 3.51392 5.64684 3.88088C6.0138 4.24783 6.51133 4.45425 7.03028 4.45485H13.9635C14.4825 4.45425 14.9801 4.24785 15.3471 3.8809C15.7141 3.51395 15.9206 3.01642 15.9213 2.49743V1.6497H17.3409C17.9619 1.6505 18.5571 1.89754 18.9962 2.33665C19.4352 2.77575 19.6822 3.37107 19.6828 3.99201V31.7249Z" fill="black"/>
<path d="M14.5301 30.9443H6.46468C6.29074 30.9443 6.12392 31.0134 6.00093 31.1364C5.87794 31.2594 5.80884 31.4262 5.80884 31.6001C5.80884 31.7741 5.87794 31.9409 6.00093 32.0639C6.12392 32.1869 6.29074 32.256 6.46468 32.256H14.5301C14.704 32.256 14.8708 32.1869 14.9938 32.0639C15.1168 31.9409 15.1859 31.7741 15.1859 31.6001C15.1859 31.4262 15.1168 31.2594 14.9938 31.1364C14.8708 31.0134 14.704 30.9443 14.5301 30.9443Z" fill="black"/>
</svg>
