<svg width="36" height="36" viewBox="0 0 36 36" fill="none" xmlns="http://www.w3.org/2000/svg">
<path d="M18.1963 7.02279C18.0091 6.97882 17.8123 6.99885 17.638 7.07965C17.4637 7.16044 17.3221 7.29724 17.236 7.46787L11.09 19.6525C11.0248 19.7819 10.9941 19.9257 11.0009 20.0701C11.0077 20.2146 11.0517 20.3549 11.1288 20.4777C11.2058 20.6005 11.3133 20.7017 11.441 20.7716C11.5687 20.8414 11.7124 20.8777 11.8583 20.8769H17.1464V28.1539C17.1464 28.3445 17.2113 28.5294 17.3306 28.6788C17.4499 28.8283 17.6166 28.9334 17.8037 28.9772C17.9909 29.0212 18.1877 29.0011 18.362 28.9204C18.5363 28.8396 18.678 28.7028 18.764 28.5321L24.91 16.3475C24.975 16.2184 25.0057 16.075 24.9991 15.9309C24.9925 15.7868 24.9489 15.6468 24.8724 15.5241C24.7958 15.4014 24.6889 15.3002 24.5618 15.23C24.4346 15.1598 24.2915 15.123 24.146 15.1231H18.8536V7.8461C18.8536 7.65555 18.7887 7.47059 18.6694 7.32117C18.5501 7.17175 18.3834 7.06661 18.1963 7.02279ZM22.7649 16.8154L18.8536 24.5696V20.0308C18.8536 19.8064 18.7637 19.5911 18.6036 19.4325C18.4435 19.2738 18.2264 19.1846 18 19.1846H13.2352L17.1464 11.4304V15.9692C17.1464 16.1936 17.2363 16.4089 17.3964 16.5675C17.5565 16.7262 17.7736 16.8154 18 16.8154H22.7649Z" fill="black"/>
<path d="M18.5128 1.61906e-06C14.0866 -0.00191745 9.82481 1.70224 6.58974 4.76771V4.03291C6.58974 3.81899 6.506 3.61383 6.35693 3.46257C6.20786 3.31131 6.00569 3.22633 5.79487 3.22633C5.58406 3.22633 5.38188 3.31131 5.23281 3.46257C5.08375 3.61383 5 3.81899 5 4.03291V7.25924C5.00107 7.38148 5.02932 7.5019 5.08264 7.61152C5.13597 7.72115 5.21299 7.81714 5.30797 7.89235C5.40294 7.96756 5.51343 8.02004 5.63118 8.04589C5.74893 8.07173 5.87091 8.07028 5.98803 8.04162L9.16752 7.23504C9.26941 7.20992 9.36541 7.16459 9.44996 7.10166C9.53452 7.03873 9.60597 6.95944 9.6602 6.86837C9.71443 6.7773 9.75036 6.67624 9.76593 6.57101C9.7815 6.46578 9.7764 6.35847 9.75091 6.25525C9.72543 6.15203 9.68008 6.05495 9.61746 5.9696C9.55484 5.88425 9.4762 5.81231 9.38606 5.75794C9.29592 5.70356 9.19607 5.66782 9.09227 5.65278C8.98846 5.63773 8.88274 5.64368 8.78121 5.67027L7.66839 5.95257C10.3205 3.4384 13.7406 1.92077 17.3603 1.65188C20.9801 1.383 24.5815 2.37903 27.5662 4.47449C30.5509 6.56994 32.7391 9.63864 33.7673 13.1707C34.7954 16.7027 34.6016 20.4854 33.218 23.8901C33.139 24.0873 33.1401 24.3082 33.2209 24.5046C33.3018 24.7011 33.4558 24.8571 33.6496 24.9387C33.7455 24.9793 33.8485 25.0001 33.9524 25C34.1099 25.0001 34.2639 24.9526 34.3948 24.8638C34.5257 24.7749 34.6277 24.6485 34.6877 24.5007C35.7791 21.8048 36.1996 18.8777 35.9122 15.9778C35.6248 13.0779 34.6382 10.2944 33.0397 7.87303C31.4411 5.45163 29.2797 3.46679 26.7462 2.09373C24.2127 0.72066 21.385 0.00159463 18.5128 1.61906e-06Z" fill="black"/>
<path d="M30.9804 27.9542L27.6991 28.7608C27.4895 28.8141 27.3097 28.9466 27.199 29.1297C27.0884 29.3127 27.0558 29.5313 27.1084 29.7379C27.1611 29.9444 27.2946 30.1221 27.4799 30.2322C27.6653 30.3424 27.8874 30.3759 28.0978 30.3257L29.2462 30.0434C26.5093 32.5576 22.9797 34.0753 19.2442 34.3442C15.5086 34.6131 11.792 33.617 8.71179 31.5215C5.63161 29.426 3.37337 26.3572 2.31233 22.825C1.25128 19.2929 1.45132 15.51 2.87919 12.1051C2.95909 11.9079 2.95671 11.6877 2.87256 11.4922C2.78842 11.2967 2.62929 11.1417 2.42969 11.0608C2.23009 10.98 2.00611 10.9797 1.80633 11.0601C1.60654 11.1406 1.44705 11.2952 1.36245 11.4905C-0.207665 15.2351 -0.427744 19.3952 0.738762 23.2799C1.90527 27.1645 4.38815 30.5398 7.77502 32.8452C11.1619 35.1505 15.2489 36.2473 19.3572 35.9531C23.4655 35.659 27.3478 33.9917 30.3594 31.2283V31.9631C30.3594 32.177 30.4458 32.3822 30.5997 32.5335C30.7535 32.6847 30.9621 32.7697 31.1797 32.7697C31.3973 32.7697 31.6059 32.6847 31.7597 32.5335C31.9136 32.3822 32 32.177 32 31.9631V28.7367C31.9991 28.6144 31.97 28.4938 31.915 28.3841C31.86 28.2744 31.7805 28.1784 31.6825 28.1031C31.5844 28.0279 31.4703 27.9754 31.3488 27.9496C31.2272 27.9238 31.1012 27.9254 30.9804 27.9542Z" fill="black"/>
</svg>
