<svg width="32" height="35" viewBox="0 0 32 35" fill="none" xmlns="http://www.w3.org/2000/svg">
<path d="M26.173 34.8975H21.8108C21.0096 34.8975 20.3567 34.2446 20.3567 33.4434V26.1731H16.7216C16.4279 26.1731 16.1618 25.9957 16.0498 25.7238C15.9364 25.4519 15.9989 25.1393 16.2068 24.9313L23.4771 17.661C23.7607 17.3775 24.2216 17.3775 24.5052 17.661L31.7755 24.9313C31.9834 25.1393 32.0459 25.4519 31.9325 25.7238C31.822 25.9957 31.5559 26.1731 31.2622 26.1731H27.627V33.4434C27.627 34.2446 26.9742 34.8975 26.173 34.8975ZM18.4766 24.719H21.0838C21.4851 24.719 21.8108 25.0447 21.8108 25.4461V33.4434H26.173V25.4461C26.173 25.0447 26.4987 24.719 26.9 24.719H29.5071L23.9919 19.2038L18.4766 24.719Z" fill="black"/>
<path d="M12.3595 8.72437C6.21757 8.72437 0 7.22669 0 4.36219C0 1.49768 6.21757 0 12.3595 0C18.5015 0 24.7191 1.49768 24.7191 4.36219C24.7191 7.22669 18.5015 8.72437 12.3595 8.72437ZM12.3595 1.45406C5.70283 1.45406 1.45406 3.17712 1.45406 4.36219C1.45406 5.54725 5.70283 7.27031 12.3595 7.27031C19.0162 7.27031 23.265 5.54725 23.265 4.36219C23.265 3.17712 19.0162 1.45406 12.3595 1.45406Z" fill="black"/>
<path d="M23.9919 14.5406C23.5906 14.5406 23.2649 14.2149 23.2649 13.8136V4.36216C23.2649 3.96084 23.5906 3.63513 23.9919 3.63513C24.3932 3.63513 24.719 3.96084 24.719 4.36216V13.8136C24.719 14.2149 24.3932 14.5406 23.9919 14.5406Z" fill="black"/>
<path d="M12.3595 31.9893C6.21757 31.9893 0 30.4917 0 27.6272V4.36216C0 3.96084 0.32571 3.63513 0.727031 3.63513C1.12835 3.63513 1.45406 3.96084 1.45406 4.36216V27.6272C1.45406 28.8122 5.70283 30.5353 12.3595 30.5353C13.9081 30.5353 15.3418 30.4437 16.6214 30.2663C17.0183 30.2081 17.3862 30.4873 17.4415 30.8857C17.4967 31.2841 17.2205 31.6505 16.822 31.7058C15.477 31.8948 13.975 31.9893 12.3595 31.9893Z" fill="black"/>
<path d="M12.3595 26.1731C6.21757 26.1731 0 24.6754 0 21.8109C0 21.4096 0.32571 21.0839 0.727031 21.0839C1.12835 21.0839 1.45406 21.4096 1.45406 21.8109C1.45406 22.996 5.70283 24.719 12.3595 24.719C12.7608 24.719 13.0866 25.0448 13.0866 25.4461C13.0866 25.8474 12.7608 26.1731 12.3595 26.1731Z" fill="black"/>
<path d="M12.3595 20.3569C6.21757 20.3569 0 18.8592 0 15.9947C0 15.5933 0.32571 15.2676 0.727031 15.2676C1.12835 15.2676 1.45406 15.5933 1.45406 15.9947C1.45406 17.1797 5.70283 18.9028 12.3595 18.9028C13.847 18.9028 15.2531 18.817 16.54 18.6469C16.934 18.5873 17.3019 18.8752 17.3557 19.2721C17.408 19.6705 17.1288 20.0355 16.7304 20.0879C15.3811 20.2667 13.911 20.3569 12.3595 20.3569Z" fill="black"/>
<path d="M12.3595 14.5406C6.21757 14.5406 0 13.0429 0 10.1784C0 9.77713 0.32571 9.45142 0.727031 9.45142C1.12835 9.45142 1.45406 9.77713 1.45406 10.1784C1.45406 11.3635 5.70283 13.0866 12.3595 13.0866C19.0162 13.0866 23.265 11.3635 23.265 10.1784C23.265 9.77713 23.5907 9.45142 23.992 9.45142C24.3933 9.45142 24.7191 9.77713 24.7191 10.1784C24.7191 13.0429 18.5015 14.5406 12.3595 14.5406Z" fill="black"/>
</svg>
