<svg width="35" height="32" viewBox="0 0 35 32" fill="none" xmlns="http://www.w3.org/2000/svg">
<path d="M31.6196 0.113095C31.5 0.0392857 31.3622 0 31.2217 0H8.53304C6.58244 0 4.99554 1.57143 4.99554 3.49732L4.8622 23.0357H0.761905C0.341071 23.0357 0 23.3768 0 23.7976V27.3176C0.00267857 29.9024 2.09732 31.997 4.68214 32C4.73452 32 4.7872 31.9946 4.83869 31.9839H23.7688C23.8815 31.992 23.9952 31.9973 24.1098 31.9973C26.7348 31.9926 28.8604 29.864 28.8613 27.239V15.8176H33.997C34.4179 15.8176 34.7589 15.4765 34.7589 15.0557V3.74554C34.7497 1.92679 33.4179 0.385417 31.6196 0.113095ZM1.52381 27.3179V24.5598H19.3583V27.2393C19.3574 28.433 19.8065 29.583 20.6164 30.4601H4.57798C4.54196 30.4604 4.50625 30.4631 4.47083 30.4685C2.81339 30.3557 1.52589 28.9792 1.52381 27.3179ZM27.3375 3.74554V27.239C27.336 28.0908 26.9976 28.9068 26.3961 29.5095C25.8202 30.1003 25.0378 30.4452 24.2134 30.4714C24.1723 30.4643 24.1307 30.4607 24.0887 30.4604H23.8208C22.1613 30.297 20.8932 28.9071 20.8821 27.2396V23.7976C20.8821 23.3771 20.5411 23.0357 20.1202 23.0357H6.38601L6.51935 3.50268C6.53036 2.40089 7.43095 1.51548 8.53304 1.52381H28.0943C27.6036 2.16042 27.3372 2.94167 27.3375 3.74554ZM33.2351 14.2938H28.8613V3.74554C28.8813 2.55179 29.8545 1.59494 31.0482 1.59494C32.242 1.59494 33.2152 2.55179 33.2351 3.74554V14.2938Z" fill="black"/>
<path d="M9.78144 8.25416H16.9975C17.4183 8.25416 17.7594 7.91308 17.7594 7.49225C17.7594 7.07142 17.4183 6.73035 16.9975 6.73035H9.78144C9.3606 6.73035 9.01953 7.07142 9.01953 7.49225C9.01953 7.91308 9.3606 8.25416 9.78144 8.25416Z" fill="black"/>
<path d="M23.2421 12.178H9.78144C9.3606 12.178 9.01953 12.5191 9.01953 12.9399C9.01953 13.3604 9.3606 13.7018 9.78144 13.7018H23.2421C23.663 13.7018 24.0041 13.3604 24.0041 12.9399C24.0041 12.5191 23.663 12.178 23.2421 12.178Z" fill="black"/>
<path d="M23.2421 17.6253H9.78144C9.3606 17.6253 9.01953 17.9666 9.01953 18.3872C9.01953 18.808 9.3606 19.1491 9.78144 19.1491H23.2421C23.663 19.1491 24.0041 18.808 24.0041 18.3872C24.0041 17.9666 23.663 17.6253 23.2421 17.6253Z" fill="black"/>
</svg>
