<svg width="24" height="25" viewBox="0 0 24 25" fill="none" xmlns="http://www.w3.org/2000/svg">
<path d="M15.51 3.33008H8.49C6 3.33008 5.45 4.57008 5.13 6.09008L4 11.5001H20L18.87 6.09008C18.55 4.57008 18 3.33008 15.51 3.33008Z" stroke="#1D1D1D" stroke-width="1.5" stroke-linecap="round" stroke-linejoin="round"/>
<path d="M21.9902 20.32C22.1002 21.49 21.1602 22.5 19.9602 22.5H18.0802C17.0002 22.5 16.8502 22.04 16.6602 21.47L16.4602 20.87C16.1802 20.05 16.0002 19.5 14.5602 19.5H9.44022C8.00022 19.5 7.79022 20.12 7.54022 20.87L7.34022 21.47C7.15022 22.04 7.00022 22.5 5.92022 22.5H4.04022C2.84022 22.5 1.90022 21.49 2.01022 20.32L2.57022 14.23C2.71022 12.73 3.00022 11.5 5.62022 11.5H18.3802C21.0002 11.5 21.2902 12.73 21.4302 14.23L21.9902 20.32Z" stroke="#1D1D1D" stroke-width="1.5" stroke-linecap="round" stroke-linejoin="round"/>
<path d="M4 8.5H3" stroke="#1D1D1D" stroke-width="1.5" stroke-linecap="round" stroke-linejoin="round"/>
<path d="M21 8.5H20" stroke="#1D1D1D" stroke-width="1.5" stroke-linecap="round" stroke-linejoin="round"/>
<path d="M12 3.5V5.5" stroke="#1D1D1D" stroke-width="1.5" stroke-linecap="round" stroke-linejoin="round"/>
<path d="M10.5 5.5H13.5" stroke="#1D1D1D" stroke-width="1.5" stroke-linecap="round" stroke-linejoin="round"/>
<path d="M6 15.5H9" stroke="#1D1D1D" stroke-width="1.5" stroke-linecap="round" stroke-linejoin="round"/>
<path d="M15 15.5H18" stroke="#1D1D1D" stroke-width="1.5" stroke-linecap="round" stroke-linejoin="round"/>
</svg>
