<svg width="18" height="18" viewBox="0 0 18 18" fill="none" xmlns="http://www.w3.org/2000/svg">
<g clip-path="url(#clip0_946_753)">
<path d="M9 0.140625C4.12031 0.140625 0.140625 4.12031 0.140625 9C0.140625 13.8797 4.12031 17.8594 9 17.8594C13.8797 17.8594 17.8594 13.8797 17.8594 9C17.8594 4.12031 13.8797 0.140625 9 0.140625ZM9 16.7344C4.73906 16.7344 1.26562 13.2609 1.26562 9C1.26562 4.73906 4.73906 1.26562 9 1.26562C13.2609 1.26562 16.7344 4.73906 16.7344 9C16.7344 13.2609 13.2609 16.7344 9 16.7344Z" fill="#B2802A"/>
<path d="M9.5625 7.66406H8.4375V13.2891H9.5625V7.66406Z" fill="#B2802A"/>
<path d="M9.5625 4.99219H8.4375V6.11719H9.5625V4.99219Z" fill="#B2802A"/>
</g>
<defs>
<clipPath id="clip0_946_753">
<rect width="18" height="18" fill="white"/>
</clipPath>
</defs>
</svg>
