<svg width="24" height="25" viewBox="0 0 24 25" fill="none" xmlns="http://www.w3.org/2000/svg">
<path d="M19.9702 10.5H3.97021V18.5C3.97021 21.5 4.97021 22.5 7.97021 22.5H15.9702C18.9702 22.5 19.9702 21.5 19.9702 18.5V10.5Z" stroke="#1D1D1D" stroke-width="1.5" stroke-miterlimit="10" stroke-linecap="round" stroke-linejoin="round"/>
<path d="M21.5 7.5V8.5C21.5 9.6 20.97 10.5 19.5 10.5H4.5C2.97 10.5 2.5 9.6 2.5 8.5V7.5C2.5 6.4 2.97 5.5 4.5 5.5H19.5C20.97 5.5 21.5 6.4 21.5 7.5Z" stroke="#1D1D1D" stroke-width="1.5" stroke-miterlimit="10" stroke-linecap="round" stroke-linejoin="round"/>
<path d="M11.6398 5.49945H6.11978C5.77978 5.12945 5.78978 4.55945 6.14978 4.19945L7.56978 2.77945C7.93978 2.40945 8.54978 2.40945 8.91978 2.77945L11.6398 5.49945Z" stroke="#1D1D1D" stroke-width="1.5" stroke-miterlimit="10" stroke-linecap="round" stroke-linejoin="round"/>
<path d="M17.8701 5.49945H12.3501L15.0701 2.77945C15.4401 2.40945 16.0501 2.40945 16.4201 2.77945L17.8401 4.19945C18.2001 4.55945 18.2101 5.12945 17.8701 5.49945Z" stroke="#1D1D1D" stroke-width="1.5" stroke-miterlimit="10" stroke-linecap="round" stroke-linejoin="round"/>
<path d="M8.93994 10.5V15.64C8.93994 16.44 9.81994 16.91 10.4899 16.48L11.4299 15.86C11.7699 15.64 12.1999 15.64 12.5299 15.86L13.4199 16.46C14.0799 16.9 14.9699 16.43 14.9699 15.63V10.5H8.93994Z" stroke="#1D1D1D" stroke-width="1.5" stroke-miterlimit="10" stroke-linecap="round" stroke-linejoin="round"/>
</svg>
