<svg width="26" height="26" viewBox="0 0 26 26" fill="none" xmlns="http://www.w3.org/2000/svg">
<path d="M9.64194 11.4258C10.0904 11.4258 10.4544 11.0618 10.4544 10.6133V7.44453C10.4544 6.02794 11.607 4.875 13.0236 4.875C14.4402 4.875 15.5931 6.02794 15.5931 7.44453V10.6133C15.5931 11.0618 15.9567 11.4258 16.4056 11.4258C16.8541 11.4258 17.2181 11.0618 17.2181 10.6133V7.44453C17.2185 5.13175 15.3367 3.25 13.0236 3.25C10.7112 3.25 8.82944 5.13175 8.82944 7.44453V10.6133C8.82944 11.0618 9.19344 11.4258 9.64194 11.4258Z" fill="#585858"/>
<path d="M22.3437 9.6001H18.031V10.6133C18.031 11.5095 17.3022 12.2383 16.406 12.2383C15.5098 12.2383 14.781 11.5095 14.781 10.6133V9.6001H11.2673V10.6133C11.2673 11.5095 10.5385 12.2383 9.64234 12.2383C8.74616 12.2383 8.01734 11.5095 8.01734 10.6133V9.6001H3.65625C3.432 9.6001 3.29347 9.77682 3.34669 9.99457L6.18962 21.5715C6.36106 22.2223 7.046 22.75 7.71875 22.75H18.2812C18.9548 22.75 19.6389 22.2223 19.8112 21.5715L22.6533 9.99457C22.7065 9.77641 22.5684 9.6001 22.3437 9.6001Z" fill="#585858"/>
</svg>
