<svg width="24" height="14" viewBox="0 0 24 14" fill="none" xmlns="http://www.w3.org/2000/svg">
<path d="M23.1955 6.79336C20.4527 3.63281 16.6625 0 11.625 0C9.59063 0 7.72578 0.575196 5.75801 1.8043C4.09902 2.8457 2.39766 4.31094 0.0605469 6.7207L0 6.78125L0.405664 7.19902C3.7418 10.6139 6.62383 13.5625 11.625 13.5625C13.835 13.5625 15.9783 12.842 18.1762 11.3586C20.0471 10.0932 21.6395 8.48867 22.917 7.19297L23.25 6.85996L23.1955 6.79336ZM11.625 11.625C8.95488 11.625 6.78125 9.45137 6.78125 6.78125C6.78125 4.11113 8.95488 1.9375 11.625 1.9375C14.2951 1.9375 16.4688 4.11113 16.4688 6.78125C16.4688 9.45137 14.2951 11.625 11.625 11.625Z" fill="black"/>
<path d="M11.2859 5.01328C11.2859 4.59551 11.407 4.20195 11.6189 3.875C10.0145 3.875 8.71875 5.18281 8.71875 6.79336C8.71875 8.40391 10.0205 9.70566 11.6189 9.70566C13.2174 9.70566 14.5252 8.40391 14.5252 6.79336C14.1982 7.00527 13.8047 7.12637 13.3869 7.12637C12.2305 7.12031 11.2859 6.17578 11.2859 5.01328Z" fill="black"/>
</svg>
