<svg width="20" height="18" viewBox="0 0 20 18" fill="none" xmlns="http://www.w3.org/2000/svg">
<path d="M17.6889 1.12222C17.4611 0.466667 16.8389 0 16.1111 0H3.88889C3.16111 0 2.53889 0.466667 2.31111 1.12222L0 7.77778V16.6667C0 17.2778 0.5 17.7778 1.11111 17.7778H2.22222C2.83889 17.7778 3.33333 17.2778 3.33333 16.6667V15.5556H16.6667V16.6667C16.6667 17.2778 17.1667 17.7778 17.7778 17.7778H18.8889C19.5056 17.7778 20 17.2778 20 16.6667V7.77778L17.6889 1.12222ZM3.88889 12.2222C2.96667 12.2222 2.22222 11.4778 2.22222 10.5556C2.22222 9.63333 2.96667 8.88889 3.88889 8.88889C4.81111 8.88889 5.55556 9.63333 5.55556 10.5556C5.55556 11.4778 4.81111 12.2222 3.88889 12.2222ZM16.1111 12.2222C15.1889 12.2222 14.4444 11.4778 14.4444 10.5556C14.4444 9.63333 15.1889 8.88889 16.1111 8.88889C17.0333 8.88889 17.7778 9.63333 17.7778 10.5556C17.7778 11.4778 17.0333 12.2222 16.1111 12.2222ZM2.22222 6.66667L3.88889 1.66667H16.1111L17.7778 6.66667H2.22222Z" fill="#585858"/>
</svg>
