<svg width="26" height="26" viewBox="0 0 26 26" fill="none" xmlns="http://www.w3.org/2000/svg">
<path d="M16.25 11.375C15.3562 11.375 14.625 10.6438 14.625 9.75V6.5C14.625 5.60625 15.3562 4.875 16.25 4.875C17.1438 4.875 17.875 5.60625 17.875 6.5V9.75C17.875 10.6438 17.1438 11.375 16.25 11.375Z" stroke="black" stroke-width="2" stroke-miterlimit="10" stroke-linecap="round" stroke-linejoin="round"/>
<path d="M20.7188 6.5C21.3918 6.5 21.9375 5.95435 21.9375 5.28125C21.9375 4.60815 21.3918 4.0625 20.7188 4.0625C20.0457 4.0625 19.5 4.60815 19.5 5.28125C19.5 5.95435 20.0457 6.5 20.7188 6.5Z" fill="black"/>
<path d="M23.9688 12.1875C24.6418 12.1875 25.1875 11.6418 25.1875 10.9688C25.1875 10.2957 24.6418 9.75 23.9688 9.75C23.2957 9.75 22.75 10.2957 22.75 10.9688C22.75 11.6418 23.2957 12.1875 23.9688 12.1875Z" fill="black"/>
<path d="M24.375 4.875L20.3125 11.375" stroke="black" stroke-width="2" stroke-miterlimit="10" stroke-linecap="round" stroke-linejoin="round"/>
<path d="M12.1875 4.875H3.25C2.35625 4.875 1.625 5.60625 1.625 6.5V19.5C1.625 20.3938 2.35625 21.125 3.25 21.125H22.75C23.6438 21.125 24.375 20.3938 24.375 19.5V13.8125" stroke="black" stroke-width="2" stroke-miterlimit="10" stroke-linecap="round" stroke-linejoin="round"/>
<path d="M4.875 16.25H6.5" stroke="black" stroke-width="2" stroke-miterlimit="10" stroke-linecap="round" stroke-linejoin="round"/>
<path d="M9.75 16.25H11.375" stroke="black" stroke-width="2" stroke-miterlimit="10" stroke-linecap="round" stroke-linejoin="round"/>
<path d="M14.625 16.25H16.25" stroke="black" stroke-width="2" stroke-miterlimit="10" stroke-linecap="round" stroke-linejoin="round"/>
<path d="M19.5 16.25H21.125" stroke="black" stroke-width="2" stroke-miterlimit="10" stroke-linecap="round" stroke-linejoin="round"/>
<path d="M1.625 8.125H12.1875" stroke="black" stroke-width="2" stroke-miterlimit="10" stroke-linecap="round" stroke-linejoin="round"/>
</svg>
