<svg width="26" height="26" viewBox="0 0 26 26" fill="none" xmlns="http://www.w3.org/2000/svg">
<path d="M10.9928 17.3274C10.7311 17.1012 10.5205 16.8282 10.4 16.4668V14.7334C10.7319 14.5696 11.5813 13.586 11.9028 12.6578C11.6307 12.2262 11.4175 11.6828 11.3273 10.9764C11.2528 10.3897 11.3412 9.87923 11.5206 9.45543C11.3863 8.9883 11.2667 8.4033 11.2667 7.8001C11.2667 6.5989 11.5154 5.4991 11.9591 4.54403C11.5587 4.1419 11.0439 3.9001 10.4 3.9001C10.4 3.9001 10.0759 2.6001 8.23333 2.6001C5.2104 2.6001 3.46667 4.9583 3.46667 7.8001C3.46667 8.7569 3.92427 9.7189 3.92427 9.7189C3.74053 9.82463 3.4372 10.1609 3.51347 10.7572C3.6556 11.8691 4.13747 12.1508 4.44427 12.1742C4.56127 13.2124 5.67667 14.5402 6.06667 14.7334V16.4668C5.2 19.0668 0 17.3334 0 23.4001H7.8C7.8 19.7809 9.41547 18.1914 10.9928 17.3274Z" fill="#585858"/>
<path d="M19.9333 16.4666V14.7333C20.3233 14.54 21.4387 13.2123 21.5557 12.1749C21.8625 12.1515 22.3444 11.8698 22.4865 10.7579C22.5628 10.1608 22.2595 9.82536 22.0757 9.71963C22.0757 9.71963 22.5333 8.85036 22.5333 7.80083C22.5333 5.69656 21.7074 3.90083 19.9333 3.90083C19.9333 3.90083 19.6092 2.60083 17.7667 2.60083C14.7437 2.59996 13 4.95816 13 7.79996C13 8.75676 13.4576 9.71876 13.4576 9.71876C13.2739 9.8245 12.9705 10.1608 13.0468 10.757C13.1889 11.869 13.6708 12.1506 13.9776 12.174C14.0946 13.2123 15.21 14.54 15.6 14.7333V16.4666C14.7333 19.0666 9.53333 17.3333 9.53333 23.4H26C26 17.3333 20.8 19.0666 19.9333 16.4666Z" fill="#585858"/>
</svg>
