<svg width="200" height="200" viewBox="0 0 200 200" fill="none" xmlns="http://www.w3.org/2000/svg">
<circle cx="100" cy="100" r="100" fill="#1D1D1D"/>
<path d="M64.7436 74.0914L48.8647 58.2236H152L108.347 96.4225V129.969L103.107 134.556V75.9404L108.347 71.3535V89.4599L138.064 63.4636H68.2607C66.5267 63.4636 64.963 64.2813 63.9755 65.7076C62.9883 67.1399 62.774 68.8901 63.3885 70.5142L64.7439 74.0914H64.7436Z" fill="#F0D75F"/>
<path d="M135.48 126.205L151.358 142.073H48.2231L91.8763 103.868V70.3276L97.116 65.7407V124.356L91.8763 128.937V110.837L62.1597 136.833H131.962C133.696 136.833 135.26 136.015 136.248 134.584C137.235 133.157 137.449 131.407 136.829 129.783L135.48 126.205Z" fill="#F0D75F"/>
<path fill-rule="evenodd" clip-rule="evenodd" d="M48.6411 58L64.52 73.8678L63.1646 70.2903C62.5501 68.6664 62.7639 66.9157 63.7516 65.484C64.7391 64.0574 66.3033 63.2397 68.0368 63.2397H137.84L108.123 89.236V71.1301L102.883 75.717V134.333L108.123 129.745V96.1994L151.776 58.0003L48.6411 58Z" fill="url(#paint0_linear_2242_291)"/>
<defs>
<linearGradient id="paint0_linear_2242_291" x1="48.641" y1="96.166" x2="151.776" y2="96.166" gradientUnits="userSpaceOnUse">
<stop stop-color="#B2802A"/>
<stop offset="0.509804" stop-color="#F0D75F"/>
<stop offset="1" stop-color="#B5832C"/>
</linearGradient>
</defs>
</svg>
