<svg width="16" height="20" viewBox="0 0 16 20" fill="none" xmlns="http://www.w3.org/2000/svg">
<path d="M13.3791 0H1.77491C0.829824 0 0 0.777476 0 1.69775V18.8639C0 19.172 0.0857366 19.4287 0.223915 19.6271C0.389163 19.8642 0.655238 20.0001 0.940555 20C1.21031 20 1.49751 19.8799 1.76274 19.6534L6.95447 15.2453C7.11481 15.1084 7.34514 15.0299 7.58462 15.0299C7.824 15.0299 8.05386 15.1084 8.21467 15.2457L13.389 19.6527C13.6552 19.8799 13.9226 20.0001 14.1919 20.0001C14.6473 20.0001 15.0911 19.6488 15.0911 18.864V1.69775C15.0911 0.777476 14.3242 0 13.3791 0Z" fill="#B2802A"/>
</svg>
