<svg width="30" height="30" viewBox="0 0 30 30" fill="none" xmlns="http://www.w3.org/2000/svg">
<path d="M7.40625 18.7969C5.34375 18.7969 3.70312 17.1563 3.70312 15.0938C3.70312 13.0313 5.34375 11.3906 7.40625 11.3906C9.46875 11.3906 11.1094 13.0313 11.1094 15.0938C11.1094 17.1094 9.46875 18.7969 7.40625 18.7969ZM7.40625 12.75C6.14062 12.75 5.10938 13.7813 5.10938 15.0469C5.10938 16.3125 6.14062 17.3438 7.40625 17.3438C8.67187 17.3438 9.70313 16.3125 9.70313 15.0469C9.70313 13.8281 8.67187 12.75 7.40625 12.75Z" fill="#BA8C31"/>
<path d="M22.4531 11.25C20.3906 11.25 18.75 9.60937 18.75 7.54687C18.75 5.48437 20.3906 3.84375 22.4531 3.84375C24.5156 3.84375 26.1563 5.48437 26.1563 7.54687C26.1563 9.60937 24.4687 11.25 22.4531 11.25ZM22.4531 5.25C21.1875 5.25 20.1562 6.28125 20.1562 7.54687C20.1562 8.8125 21.1875 9.84374 22.4531 9.84374C23.7187 9.84374 24.75 8.8125 24.75 7.54687C24.75 6.28125 23.7187 5.25 22.4531 5.25Z" fill="#BA8C31"/>
<path d="M22.4531 26.2969C20.3906 26.2969 18.75 24.6563 18.75 22.5938C18.75 20.5313 20.3906 18.8906 22.4531 18.8906C24.5156 18.8906 26.1563 20.5313 26.1563 22.5938C26.1563 24.6563 24.4687 26.2969 22.4531 26.2969ZM22.4531 20.2969C21.1875 20.2969 20.1562 21.3281 20.1562 22.5938C20.1562 23.8594 21.1875 24.8906 22.4531 24.8906C23.7187 24.8906 24.75 23.8594 24.75 22.5938C24.75 21.3281 23.7187 20.2969 22.4531 20.2969Z" fill="#BA8C31"/>
<path d="M19.4063 21.9375L9.75 17.1094L10.4063 15.75L20.1094 20.5781L19.4063 21.9375Z" fill="#BA8C31"/>
<path d="M10.4063 14.3906L9.75 13.0781L19.4063 8.25L20.1094 9.56249L10.4063 14.3906Z" fill="#BA8C31"/>
</svg>
