<svg width="390" height="844" viewBox="0 0 390 844" fill="none" xmlns="http://www.w3.org/2000/svg">
<g clip-path="url(#clip0_0_10)">
<rect width="390" height="844" fill="#1D1D1D"/>
<path d="M148.516 362.433L127.362 341.294H264.762L206.606 392.183V436.875L199.625 442.985V364.896L206.606 358.786V382.908L246.196 348.275H153.202C150.892 348.275 148.809 349.364 147.493 351.264C146.178 353.172 145.892 355.504 146.711 357.668L148.517 362.433H148.516Z" fill="#F0D75F"/>
<path d="M242.752 431.861L263.907 453H126.507L184.663 402.103V357.419L191.643 351.308V429.397L184.663 435.501V411.387L145.074 446.02H238.067C240.377 446.02 242.46 444.93 243.776 443.023C245.092 441.122 245.376 438.791 244.55 436.627L242.752 431.861L242.752 431.861Z" fill="#F0D75F"/>
<path fill-rule="evenodd" clip-rule="evenodd" d="M127.065 340.996L148.219 362.136L146.413 357.37C145.595 355.206 145.879 352.874 147.195 350.967C148.511 349.066 150.595 347.977 152.904 347.977H245.898L206.309 382.61V358.489L199.328 364.599V442.689L206.309 436.578V391.887L264.464 340.997L127.065 340.996Z" fill="url(#paint0_linear_0_10)"/>
<path d="M103.227 741.319L211 849H-489L-192.717 589.74V362.127L-157.154 331V728.772L-192.717 759.862V637.028L-394.41 813.443H79.356C91.1248 813.443 101.738 807.893 108.44 798.178C115.144 788.497 116.595 776.62 112.387 765.598L103.225 741.321L103.227 741.319Z" fill="#F0D75F"/>
<path d="M318.773 107.681L211 0H911L614.717 259.26V486.873L579.154 518V120.228L614.717 89.1378V211.972L816.41 35.5573H342.644C330.875 35.5573 320.262 41.1066 313.56 50.8224C306.856 60.5033 305.405 72.3802 309.613 83.4018L318.775 107.679L318.773 107.681Z" fill="#F0D75F"/>
</g>
<defs>
<linearGradient id="paint0_linear_0_10" x1="127.065" y1="391.842" x2="264.464" y2="391.842" gradientUnits="userSpaceOnUse">
<stop stop-color="#B2802A"/>
<stop offset="0.509804" stop-color="#F0D75F"/>
<stop offset="1" stop-color="#B5832C"/>
</linearGradient>
<clipPath id="clip0_0_10">
<rect width="390" height="844" fill="white"/>
</clipPath>
</defs>
</svg>
