<svg width="19" height="19" viewBox="0 0 19 19" fill="none" xmlns="http://www.w3.org/2000/svg">
<path d="M9.5 0C4.256 0 0 4.256 0 9.5C0 14.744 4.256 19 9.5 19C14.744 19 19 14.744 19 9.5C19 4.256 14.744 0 9.5 0ZM8.4835 14.3925C8.4835 14.4875 8.4645 14.573 8.4265 14.668C8.3505 14.839 8.2175 14.9815 8.037 15.0575C7.9515 15.0955 7.8565 15.1145 7.7615 15.1145C7.6665 15.1145 7.581 15.0955 7.486 15.0575C7.4005 15.0195 7.3245 14.972 7.258 14.9055L4.37 12.0175C4.0945 11.742 4.0945 11.286 4.37 11.0105C4.6455 10.735 5.1015 10.735 5.377 11.0105L7.049 12.6825V4.6075C7.049 4.218 7.372 3.895 7.7615 3.895C8.151 3.895 8.474 4.218 8.474 4.6075V14.3925H8.4835ZM14.6205 7.999C14.478 8.1415 14.2975 8.208 14.117 8.208C13.9365 8.208 13.756 8.1415 13.6135 7.999L11.9415 6.327V14.402C11.9415 14.7915 11.6185 15.1145 11.229 15.1145C10.8395 15.1145 10.5165 14.7915 10.5165 14.402V4.6075C10.5165 4.5125 10.5355 4.427 10.5735 4.332C10.6495 4.161 10.7825 4.0185 10.963 3.9425C11.134 3.8665 11.3335 3.8665 11.5045 3.9425C11.59 3.9805 11.666 4.028 11.7325 4.0945L14.6205 6.9825C14.896 7.2675 14.896 7.714 14.6205 7.999Z" fill="#2E2E2E"/>
</svg>
