<svg width="29" height="24" viewBox="0 0 29 24" fill="none" xmlns="http://www.w3.org/2000/svg">
<path d="M20.0302 10.6391C19.8118 10.6391 19.5934 10.5691 19.4209 10.4191L15.9258 7.37906C15.5924 7.08906 15.5924 6.60906 15.9258 6.31906C16.2593 6.02906 16.8111 6.02906 17.1445 6.31906L20.6396 9.35904C20.973 9.64904 20.973 10.1291 20.6396 10.4191C20.4672 10.5591 20.2487 10.6391 20.0302 10.6391Z" fill="#1D1D1D"/>
<path d="M16.5351 17.8998C16.0637 17.8998 15.6729 17.5598 15.6729 17.1498V6.83984C15.6729 6.42984 16.0637 6.08984 16.5351 6.08984C17.0065 6.08984 17.3974 6.42984 17.3974 6.83984V17.1498C17.3974 17.5698 17.0065 17.8998 16.5351 17.8998Z" fill="#1D1D1D"/>
<path d="M12.3506 17.9008C12.1322 17.9008 11.9137 17.8308 11.7413 17.6808L8.24615 14.6408C7.91274 14.3508 7.91274 13.8708 8.24615 13.5808C8.57957 13.2908 9.13146 13.2908 9.46487 13.5808L12.9599 16.6208C13.2933 16.9108 13.2933 17.3908 12.9599 17.6808C12.799 17.8308 12.5805 17.9008 12.3506 17.9008Z" fill="#1D1D1D"/>
<path d="M12.3501 17.8998C11.8787 17.8998 11.4878 17.5598 11.4878 17.1498V6.83984C11.4878 6.42984 11.8787 6.08984 12.3501 6.08984C12.8214 6.08984 13.2123 6.42984 13.2123 6.83984V17.1498C13.2123 17.5698 12.8329 17.8998 12.3501 17.8998Z" fill="#1D1D1D"/>
<path d="M14.4428 22.75C7.62505 22.75 2.0835 17.93 2.0835 12C2.0835 6.07 7.62505 1.25 14.4428 1.25C21.2605 1.25 26.8021 6.07 26.8021 12C26.8021 17.93 21.2605 22.75 14.4428 22.75ZM14.4428 2.75C8.5793 2.75 3.80805 6.9 3.80805 12C3.80805 17.1 8.5793 21.25 14.4428 21.25C20.3063 21.25 25.0775 17.1 25.0775 12C25.0775 6.9 20.3063 2.75 14.4428 2.75Z" fill="#1D1D1D"/>
</svg>
