<svg width="30" height="26" viewBox="0 0 30 26" fill="none" xmlns="http://www.w3.org/2000/svg">
<path fill-rule="evenodd" clip-rule="evenodd" d="M0.515503 18.1704C0.515503 19.5358 1.62132 20.6415 2.98662 20.6415H6.69351V24.4538C6.69351 25.1397 7.24982 25.6892 7.9292 25.6892C8.27546 25.6892 8.58976 25.5467 8.81246 25.3187L13.4895 20.6416H27.0814C28.4467 20.6416 29.5525 19.5359 29.5525 18.1705V2.72509C29.5525 1.35972 28.4467 0.253906 27.0814 0.253906H2.98669C1.62132 0.253906 0.515571 1.35972 0.515571 2.72509L0.515503 18.1704ZM7.92927 11.0656C7.92927 10.2132 8.62131 9.52115 9.47376 9.52115C10.3262 9.52115 11.0182 10.2132 11.0182 11.0656C11.0182 11.9182 10.3262 12.6101 9.47376 12.6101C8.62124 12.6101 7.92927 11.9181 7.92927 11.0656ZM13.4896 11.0656C13.4896 10.2132 14.1816 9.52115 15.0341 9.52115C15.8866 9.52115 16.5787 10.2132 16.5787 11.0656C16.5787 11.9182 15.8866 12.6101 15.0341 12.6101C14.1816 12.6101 13.4896 11.9181 13.4896 11.0656ZM19.0499 11.0656C19.0499 10.2132 19.7418 9.52115 20.5945 9.52115C21.447 9.52115 22.1388 10.2132 22.1388 11.0656C22.1388 11.9182 21.447 12.6101 20.5945 12.6101C19.7418 12.6101 19.0499 11.9181 19.0499 11.0656Z" fill="#010101"/>
</svg>
