<svg width="25" height="24" viewBox="0 0 25 24" fill="none" xmlns="http://www.w3.org/2000/svg">
<path d="M3 13.24V11.51C3 9.44001 4.68999 7.75 6.75999 7.75H18.24C20.31 7.75 22 9.44001 22 11.51V12.95H19.98C19.42 12.95 18.91 13.17 18.54 13.55C18.12 13.96 17.88 14.55 17.94 15.18C18.03 16.26 19.02 17.05 20.1 17.05H22V18.24C22 20.31 20.31 22 18.24 22H12.76" stroke="#1D1D1D" stroke-width="1.2" stroke-linecap="round" stroke-linejoin="round"/>
<path d="M3 12.4093V7.83937C3 6.64937 3.73 5.58933 4.84 5.16933L12.78 2.16933C14.02 1.69933 15.35 2.61936 15.35 3.94936V7.74934" stroke="#1D1D1D" stroke-width="1.2" stroke-linecap="round" stroke-linejoin="round"/>
<path d="M23.0588 13.9692V16.0292C23.0588 16.5792 22.6188 17.0292 22.0588 17.0492H20.0988C19.0188 17.0492 18.0288 16.2592 17.9388 15.1792C17.8788 14.5492 18.1188 13.9592 18.5388 13.5492C18.9088 13.1692 19.4188 12.9492 19.9788 12.9492H22.0588C22.6188 12.9692 23.0588 13.4192 23.0588 13.9692Z" stroke="#1D1D1D" stroke-width="1.2" stroke-linecap="round" stroke-linejoin="round"/>
<path d="M7.5 12H14.5" stroke="#1D1D1D" stroke-width="1.2" stroke-linecap="round" stroke-linejoin="round"/>
<path d="M3.5 16.5H8.84C9.48 16.5 10 17.02 10 17.66V18.94" stroke="#1D1D1D" stroke-width="1.2" stroke-miterlimit="10" stroke-linecap="round" stroke-linejoin="round"/>
<path d="M4.72 15.2793L3.5 16.4993L4.72 17.7192" stroke="#1D1D1D" stroke-width="1.2" stroke-miterlimit="10" stroke-linecap="round" stroke-linejoin="round"/>
<path d="M10 21.7798H4.66C4.02 21.7798 3.5 21.2598 3.5 20.6198V19.3398" stroke="#1D1D1D" stroke-width="1.2" stroke-miterlimit="10" stroke-linecap="round" stroke-linejoin="round"/>
<path d="M8.78125 22.9986L10.0013 21.7786L8.78125 20.5586" stroke="#1D1D1D" stroke-width="1.2" stroke-miterlimit="10" stroke-linecap="round" stroke-linejoin="round"/>
</svg>
