<svg width="34" height="33" viewBox="0 0 34 33" fill="none" xmlns="http://www.w3.org/2000/svg">
<g clip-path="url(#clip0_1690_339)">
<path d="M31.7632 8.5H2.23688C1.49566 8.5 0.894775 9.10088 0.894775 9.84211V29.9737C0.894775 30.7149 1.49566 31.3158 2.23688 31.3158H31.7632C32.5044 31.3158 33.1053 30.7149 33.1053 29.9737V9.84211C33.1053 9.10088 32.5044 8.5 31.7632 8.5Z" stroke="#1E1E1E" stroke-width="2" stroke-linecap="round" stroke-linejoin="round"/>
<path d="M8.94727 1.01245L16.9999 9.06508L25.0525 1.01245" stroke="#1E1E1E" stroke-width="2" stroke-linecap="round" stroke-linejoin="round"/>
<path d="M27.0658 17.5592C27.9923 17.5592 28.7434 16.8081 28.7434 15.8815C28.7434 14.955 27.9923 14.2039 27.0658 14.2039C26.1393 14.2039 25.3882 14.955 25.3882 15.8815C25.3882 16.8081 26.1393 17.5592 27.0658 17.5592Z" fill="#1E1E1E"/>
<path d="M27.0658 25.6119C27.9923 25.6119 28.7434 24.8608 28.7434 23.9342C28.7434 23.0077 27.9923 22.2566 27.0658 22.2566C26.1393 22.2566 25.3882 23.0077 25.3882 23.9342C25.3882 24.8608 26.1393 25.6119 27.0658 25.6119Z" fill="#1E1E1E"/>
<path d="M21.0264 31.3158V8.5" stroke="#1E1E1E" stroke-width="2" stroke-linecap="round" stroke-linejoin="round"/>
</g>
<defs>
<clipPath id="clip0_1690_339">
<rect width="34" height="32.2105" fill="white"/>
</clipPath>
</defs>
</svg>
