<svg width="7" height="11" viewBox="0 0 7 11" fill="none" xmlns="http://www.w3.org/2000/svg">
<path d="M3.59817 0.0113932C3.50454 -0.0105908 3.40617 -0.000572639 3.31901 0.0398228C3.23186 0.0802182 3.16103 0.148621 3.11801 0.233933L0.0450164 6.32627C0.0124104 6.39095 -0.00292905 6.46284 0.000461386 6.53506C0.00385182 6.60729 0.0258593 6.67745 0.0643834 6.73885C0.102908 6.80024 0.156663 6.85083 0.220519 6.88578C0.284375 6.92072 0.3562 6.93887 0.429141 6.93847H3.0732V10.577C3.07321 10.6722 3.10567 10.7647 3.16532 10.8394C3.22496 10.9141 3.3083 10.9667 3.40184 10.9886C3.49546 11.0106 3.59383 11.0006 3.68099 10.9602C3.76815 10.9198 3.83898 10.8514 3.88199 10.7661L6.95499 4.67373C6.98751 4.60921 7.00285 4.53752 6.99956 4.46547C6.99627 4.39342 6.97445 4.3234 6.93618 4.26206C6.8979 4.20072 6.84444 4.1501 6.78088 4.115C6.71732 4.0799 6.64576 4.0615 6.573 4.06153H3.92681V0.423049C3.92679 0.327774 3.89433 0.235295 3.83468 0.160584C3.77504 0.0858737 3.6917 0.0333063 3.59817 0.0113932ZM5.88243 4.90769L3.92681 8.78479V6.51539C3.92681 6.40318 3.88184 6.29557 3.8018 6.21623C3.72176 6.13689 3.6132 6.09231 3.5 6.09231H1.11758L3.0732 2.21521V4.48461C3.0732 4.59682 3.11816 4.70443 3.1982 4.78377C3.27825 4.86311 3.38681 4.90769 3.5 4.90769H5.88243Z" fill="black"/>
</svg>
