<svg width="172" height="139" viewBox="0 0 172 139" fill="none" xmlns="http://www.w3.org/2000/svg">
<path d="M27.5568 26.6661L1.4231 0.550537H171.165L99.3204 63.4191V118.63L90.6963 126.179V29.7091L99.3204 22.1599V51.9599L148.229 9.17458H33.3453C30.4915 9.17458 27.9179 10.5204 26.2927 12.8679C24.6679 15.2251 24.3153 18.1055 25.3266 20.7786L27.5573 26.6661H27.5568Z" fill="#F0D75F"/>
<path d="M143.975 112.436L170.109 138.551H0.366943L72.2122 75.6736V20.4715L80.8358 12.9224V109.392L72.2122 116.933V87.1421L23.304 129.927H138.187C141.041 129.927 143.614 128.582 145.239 126.225C146.865 123.877 147.217 120.997 146.197 118.324L143.975 112.436L143.975 112.436Z" fill="#F0D75F"/>
<path fill-rule="evenodd" clip-rule="evenodd" d="M1.05586 0.183105L27.1896 26.2986L24.959 20.4107C23.9476 17.7381 24.2994 14.8568 25.925 12.5004C27.5503 10.1525 30.1247 8.80671 32.9776 8.80671H147.86L98.9531 51.592V21.793L90.3286 29.3421V125.813L98.9531 118.263V63.0525L170.797 0.18355H1.05542L1.05586 0.183105Z" fill="url(#paint0_linear_0_51)"/>
<defs>
<linearGradient id="paint0_linear_0_51" x1="1.05586" y1="62.9974" x2="170.798" y2="62.9974" gradientUnits="userSpaceOnUse">
<stop stop-color="#B2802A"/>
<stop offset="0.509804" stop-color="#F0D75F"/>
<stop offset="1" stop-color="#B5832C"/>
</linearGradient>
</defs>
</svg>
